<?xml version="1.0" encoding="utf-8"?>
<!-- Generator: Adobe Illustrator 28.3.0, SVG Export Plug-In . SVG Version: 6.00 Build 0)  -->
<svg version="1.1" id="Calque_1" xmlns="http://www.w3.org/2000/svg" xmlns:xlink="http://www.w3.org/1999/xlink" x="0px" y="0px"
	 viewBox="0 0 1200 1200" style="enable-background:new 0 0 1200 1200;" xml:space="preserve">
<style type="text/css">
	.st0{fill:#FAD922;}
</style>
<path class="st0" d="M481.2,444.9H346.1c-10.5,0-19.3,3.5-26.4,10.6c-7.1,7.1-10.6,15.9-10.6,26.4V937c0,5.5-1.9,10.3-5.5,14.3
	c-3.7,4-8.3,6-13.9,6h-86.9c-5.6,0-10.3-2-14.3-6c-4-4-6-8.8-6-14.3V481.9c0-22.8,4.3-44.1,13-63.8c8.6-19.7,20.4-37,35.1-51.8
	c14.8-14.8,32.1-26.5,51.8-35.1c19.8-8.6,41-13,63.8-13h135.1c14.2,0,23.4-1,27.7-3.2c4.3-2.2,6.5-3.5,6.5-4.2
	c1.2-1.2,2.9-4.8,5.1-10.6c2.2-5.8,3.2-16.2,3.2-31v-11.1c0-3.1,1.8-5.7,5.5-7.9s8.3-3.2,13.9-3.2h114.7c5.5,0,10.3,1.1,14.3,3.2
	c4,2.2,6,4.8,6,7.9v11.1c0,14.8,0.9,25.1,2.8,31c1.8,5.9,3.4,9.4,4.6,10.6c0.6,0.6,2.9,2,7,4.2c4,2.2,13.1,3.2,27.3,3.2h136
	c22.2,0,43.2,4.3,62.9,13c19.7,8.6,37,20.4,51.8,35.1c14.8,14.8,26.5,32.1,35.2,51.8c8.6,19.8,13,41,13,63.8V937
	c0,5.5-1.9,10.3-5.5,14.3c-3.7,4-8.3,6-13.9,6h-86.9c-5.5,0-10.3-2-14.3-6c-4-4-6-8.8-6-14.3V481.9c0-10.5-3.4-19.3-10.2-26.4
	c-6.8-7.1-15.4-10.6-25.9-10.6h-136c-38.8,0-70.6-9.5-95.3-28.7c-4.9-3.7-9.4-7.4-13.4-11.1c-4-3.7-7.5-7.7-10.6-12
	c-6.2,8-13.9,15.7-23.1,23.1C552.1,435.4,520,444.9,481.2,444.9"/>
<path class="st0" d="M524.8,617.3c5.6,0,10.4,2,14.5,6.1c4,4.1,6.1,8.9,6.1,14.5v95c0,5.6-2,10.3-6.1,14c-4.1,3.7-8.9,5.6-14.5,5.6
	H438c-5.6,0-10.4-1.9-14.5-5.6c-4.1-3.7-6.1-8.4-6.1-14v-95c0-5.6,2-10.4,6.1-14.5c4-4,8.9-6.1,14.5-6.1H524.8z"/>
<path class="st0" d="M760,617.3c5.6,0,10.4,2,14.5,6.1c4,4.1,6.1,8.9,6.1,14.5v95c0,5.6-2,10.3-6.1,14c-4.1,3.7-8.9,5.6-14.5,5.6
	h-86.9c-5.6,0-10.4-1.9-14.5-5.6c-4.1-3.7-6.1-8.4-6.1-14v-95c0-5.6,2-10.4,6.1-14.5c4-4,8.9-6.1,14.5-6.1H760z"/>
<path class="st0" d="M423.1,874.2c-2-1.2-3.2-2.7-3.5-4.6c-0.3-1.9,0.2-3.8,1.5-5.6l26.5-42.6c1.3-1.9,2.9-3,4.8-3.2
	c1.9-0.2,3.7,0.2,5.4,1.4c21.5,13.5,44.2,23.7,68.2,30.8c23.6,6.5,48.5,9.8,74.6,9.8c25.9,0,50.7-3.3,74.5-10
	c23.8-6.7,46.6-16.9,68.5-30.6c1.6-1.2,3.3-1.7,5.2-1.4c1.9,0.2,3.5,1.3,4.8,3.2l26.5,42.6c1.4,1.8,2,3.6,1.6,5.6
	c-0.3,1.9-1.5,3.4-3.6,4.6c-26,16.5-53.9,29.1-83.7,37.8c-29.8,8.7-61,13-93.9,13c-32.8,0-64.1-4.3-93.9-13
	C477,903.2,449.1,890.6,423.1,874.2z"/>
</svg>
