<?xml version="1.0" standalone="no"?>
<!DOCTYPE svg PUBLIC "-//W3C//DTD SVG 20010904//EN"
 "http://www.w3.org/TR/2001/REC-SVG-20010904/DTD/svg10.dtd">
<svg version="1.0" xmlns="http://www.w3.org/2000/svg"
 width="400.000000pt" height="400.000000pt" viewBox="0 0 400.000000 400.000000"
 preserveAspectRatio="xMidYMid meet">
<metadata>
Created by potrace 1.16, written by Peter Selinger 2001-2019
</metadata>
<g transform="translate(0.000000,400.000000) scale(0.059613,-0.062893)"
fill="#000000" stroke="none">
<path d="M3295 6312 c-105 -51 -3179 -1663 -3216 -1687 -57 -37 -69 -74 -69
-218 0 -112 2 -127 22 -157 42 -62 69 -74 172 -78 l94 -4 4 -122 c4 -146 19
-184 87 -227 45 -29 46 -29 207 -29 l162 0 4 -132 c2 -111 6 -140 24 -172 24
-46 55 -72 110 -91 l39 -13 5 -672 5 -672 28 -24 c30 -26 83 -32 119 -13 47
25 48 35 48 729 l0 650 155 0 155 0 0 -995 0 -995 -154 0 -154 0 -4 136 -3
136 -33 29 c-42 38 -82 38 -124 0 l-33 -29 -5 -137 -5 -137 -39 -13 c-55 -19
-86 -45 -110 -91 -18 -32 -22 -61 -24 -171 l-4 -133 -164 0 c-183 0 -214 -7
-273 -63 -56 -53 -71 -98 -71 -214 l0 -103 -27 -5 c-107 -22 -156 -55 -196
-129 -20 -37 -22 -55 -22 -203 0 -181 6 -200 75 -235 l33 -17 -59 -4 c-32 -2
1453 -3 3301 -3 1848 0 3329 2 3291 3 l-69 4 34 17 c18 9 44 32 56 51 21 32
23 45 23 183 0 166 -8 199 -63 256 -37 39 -96 72 -129 72 -40 0 -45 12 -50
115 -7 147 -40 206 -145 259 -26 13 -65 16 -203 16 l-170 0 0 128 c0 102 -4
135 -19 168 -22 48 -77 94 -124 103 l-32 7 0 999 0 999 32 7 c47 9 102 55 124
103 15 33 19 66 19 169 l0 127 160 0 c186 0 220 10 267 82 26 39 28 49 31 169
l4 127 91 4 c105 4 145 22 180 78 20 31 22 49 22 160 0 130 -8 163 -51 202
-41 36 -2300 1248 -2326 1248 -16 0 -41 -12 -60 -29 -27 -24 -33 -36 -33 -72
0 -35 6 -46 30 -66 17 -13 527 -292 1135 -621 l1105 -597 3 -52 3 -53 -3146 0
-3146 0 3 51 3 52 1589 833 c875 459 1594 834 1600 834 6 0 114 -56 241 -124
126 -68 240 -127 252 -130 28 -9 88 16 102 42 16 29 14 84 -4 109 -8 12 -130
83 -271 159 -299 160 -317 165 -419 116z m2895 -2237 l0 -95 -2845 0 -2845 0
0 95 0 95 2845 0 2845 0 0 -95z m-4560 -390 l0 -105 -335 0 -335 0 0 105 0
105 335 0 335 0 0 -105z m500 -22 c0 -103 4 -136 19 -169 22 -47 70 -88 121
-101 l35 -9 0 -999 0 -999 -35 -9 c-51 -13 -99 -54 -121 -101 -15 -33 -19 -66
-19 -168 l0 -128 -149 0 -149 0 -4 133 c-3 119 -5 136 -28 176 -23 41 -76 79
-132 95 -17 5 -18 61 -18 1001 0 940 1 996 18 1001 56 16 109 54 132 95 23 40
25 57 28 177 l4 132 149 0 149 0 0 -127z m868 20 l3 -103 -336 0 -335 0 0 105
0 105 333 -2 332 -3 3 -102z m502 -33 c5 -148 15 -177 70 -224 18 -14 44 -29
58 -32 15 -3 33 -7 40 -10 9 -3 12 -211 12 -999 0 -788 -3 -996 -12 -999 -7
-3 -25 -7 -40 -10 -14 -3 -40 -18 -58 -32 -55 -47 -65 -76 -70 -224 l-5 -135
-150 0 -150 0 -5 140 c-3 79 -10 149 -17 160 -20 36 -70 76 -109 90 l-39 13
-3 1001 -2 1001 20 0 c43 0 111 53 139 107 6 13 11 75 11 151 0 71 3 132 7
136 4 3 72 5 152 4 l146 -3 5 -135z m868 33 l3 -103 -341 0 -340 0 0 98 c0 54
3 102 7 105 4 4 155 6 337 5 l331 -3 3 -102z m502 -38 c3 -82 10 -149 17 -161
19 -33 81 -83 111 -90 15 -3 33 -7 40 -10 9 -3 12 -211 12 -998 l0 -995 -40
-11 c-42 -11 -102 -57 -123 -94 -7 -12 -14 -79 -17 -161 l-5 -140 -150 0 -150
0 -5 141 c-5 135 -6 142 -33 178 -34 44 -67 66 -110 75 l-32 7 0 999 0 999 32
7 c43 9 76 31 110 75 27 36 28 42 31 168 1 72 5 137 7 144 4 10 39 12 152 10
l148 -3 5 -140z m860 40 l0 -105 -335 0 -335 0 0 98 c0 54 3 102 7 105 3 4
154 7 335 7 l328 0 0 -105z m-2910 -1300 l0 -995 -155 0 -155 0 0 995 0 995
155 0 155 0 0 -995z m1370 0 l0 -995 -160 0 -160 0 0 995 0 995 160 0 160 0 0
-995z m1370 0 l0 -995 -160 0 -160 0 0 995 0 995 160 0 160 0 0 -995z m-3930
-1300 l0 -105 -335 0 -335 0 0 105 0 105 335 0 335 0 0 -105z m1368 3 l-3
-103 -332 -3 -333 -2 0 105 0 105 335 0 336 0 -3 -102z m1370 0 l-3 -103 -335
0 -335 0 -3 103 -3 102 341 0 341 0 -3 -102z m1362 -3 l0 -105 -332 2 -333 3
-3 103 -3 102 336 0 335 0 0 -105z m508 -307 c7 -7 12 -44 12 -95 l0 -83
-2905 0 -2905 0 0 79 c0 59 4 84 16 95 14 14 290 16 2893 16 2224 0 2880 -3
2889 -12z m246 -394 c12 -11 16 -36 16 -95 l0 -79 -3150 0 -3150 0 0 83 c0 51
5 88 12 95 9 9 719 12 3134 12 2825 0 3124 -1 3138 -16z"/>
</g>
</svg>
