<?xml version="1.0" encoding="iso-8859-1"?>
<!-- Generator: Adobe Illustrator 26.1.0, SVG Export Plug-In . SVG Version: 6.00 Build 0)  -->
<svg version="1.1" id="Calque_1" xmlns="http://www.w3.org/2000/svg" xmlns:xlink="http://www.w3.org/1999/xlink" x="0px" y="0px"
	 viewBox="0 0 340.73 254.078" style="enable-background:new 0 0 340.73 254.078;" xml:space="preserve">
<path style="fill:#0033FF;" d="M158.456,52.426h-13.082c-1.014,0-1.866,0.344-2.554,1.029c-0.685,0.688-1.029,1.54-1.029,2.554
	v44.08c0,0.537-0.18,1-0.538,1.388c-0.358,0.389-0.807,0.582-1.344,0.582h-8.422c-0.538,0-0.999-0.193-1.389-0.582
	c-0.388-0.388-0.583-0.851-0.583-1.388v-44.08c0-2.209,0.42-4.269,1.255-6.182c0.838-1.911,1.971-3.584,3.405-5.017
	c1.433-1.434,3.106-2.567,5.017-3.405c1.913-0.836,3.973-1.255,6.182-1.255h13.082c1.375,0,2.27-0.102,2.687-0.313
	c0.419-0.209,0.628-0.343,0.628-0.403c0.12-0.119,0.284-0.462,0.492-1.031c0.21-0.566,0.314-1.568,0.314-3.001v-1.075
	c0-0.298,0.179-0.552,0.538-0.761c0.358-0.209,0.805-0.314,1.343-0.314h11.111c0.537,0,1,0.105,1.388,0.314
	c0.389,0.209,0.583,0.463,0.583,0.761v1.075c0,1.433,0.089,2.435,0.269,3.001c0.179,0.569,0.329,0.912,0.447,1.031
	c0.06,0.06,0.285,0.194,0.673,0.403c0.389,0.211,1.27,0.313,2.642,0.313h13.171c2.151,0,4.181,0.419,6.093,1.255
	c1.911,0.838,3.584,1.971,5.017,3.405c1.434,1.433,2.567,3.106,3.405,5.017c0.836,1.913,1.255,3.973,1.255,6.182v44.08
	c0,0.537-0.18,1-0.538,1.388c-0.359,0.389-0.807,0.582-1.344,0.582h-8.422c-0.538,0-0.999-0.193-1.388-0.582
	c-0.388-0.388-0.584-0.851-0.584-1.388v-44.08c0-1.014-0.327-1.866-0.985-2.554c-0.657-0.685-1.493-1.029-2.509-1.029h-13.171
	c-3.762,0-6.838-0.925-9.228-2.777c-0.477-0.359-0.911-0.718-1.3-1.076c-0.387-0.358-0.73-0.746-1.03-1.164
	c-0.596,0.776-1.343,1.522-2.24,2.24C165.325,51.501,162.218,52.426,158.456,52.426"/>
<path style="fill:#0033FF;" d="M162.686,74.367c0.543,0,1.009,0.196,1.402,0.588c0.392,0.394,0.588,0.86,0.588,1.403v9.204
	c0,0.543-0.196,0.995-0.588,1.357c-0.393,0.362-0.859,0.543-1.402,0.543h-8.415c-0.543,0-1.011-0.181-1.403-0.543
	c-0.393-0.362-0.588-0.814-0.588-1.357v-9.204c0-0.543,0.195-1.009,0.588-1.403c0.392-0.392,0.86-0.588,1.403-0.588H162.686z"/>
<path style="fill:#0033FF;" d="M185.627,74.367c0.543,0,1.009,0.196,1.402,0.588c0.392,0.394,0.588,0.86,0.588,1.403v23.9
	c0,0.543-0.196,0.996-0.588,1.358c-0.393,0.361-0.859,0.543-1.402,0.543h-8.415c-0.543,0-1.011-0.182-1.403-0.543
	c-0.393-0.362-0.588-0.815-0.588-1.358v-23.9c0-0.543,0.195-1.009,0.588-1.403c0.392-0.392,0.86-0.588,1.403-0.588H185.627z"/>
<path style="fill:#0033FF;" d="M38.655,145.912c0-0.514,0.174-0.927,0.523-1.236c0.348-0.309,0.781-0.464,1.298-0.464h41.688
	c0.465,0,0.878,0.142,1.24,0.425c0.361,0.284,0.567,0.709,0.619,1.275v9.619c0,0.464-0.161,0.908-0.484,1.333
	c-0.323,0.425-0.781,0.637-1.375,0.637H68.797v53.682c0,0.465-0.167,0.885-0.502,1.26c-0.336,0.376-0.773,0.563-1.314,0.563H55.62
	c-0.439,0-0.851-0.175-1.237-0.524c-0.386-0.349-0.58-0.782-0.58-1.299v-53.682H40.476c-0.517,0-0.95-0.167-1.298-0.502
	c-0.349-0.334-0.523-0.824-0.523-1.468V145.912z"/>
<path style="fill:#0033FF;" d="M97.623,188.443c0,1.705,0.264,3.299,0.794,4.784c0.529,1.486,1.284,2.771,2.267,3.855
	c0.981,1.085,2.162,1.944,3.545,2.577c1.381,0.633,2.912,0.949,4.591,0.949c1.73,0,3.338-0.316,4.823-0.949
	c1.485-0.633,2.777-1.492,3.875-2.577c1.097-1.084,1.956-2.369,2.576-3.855c0.62-1.485,0.93-3.079,0.93-4.784
	c0-1.653-0.31-3.229-0.93-4.727c-0.62-1.498-1.479-2.815-2.576-3.952c-1.098-1.136-2.39-2.034-3.875-2.693
	c-1.485-0.658-3.093-0.988-4.823-0.988c-1.679,0-3.21,0.33-4.591,0.988c-1.383,0.659-2.564,1.557-3.545,2.693
	c-0.983,1.137-1.738,2.454-2.267,3.952C97.887,185.214,97.623,186.79,97.623,188.443 M135.785,210.139
	c0,0.439-0.078,0.859-0.232,1.259c-0.155,0.401-0.414,0.717-0.775,0.949c-0.285,0.285-0.62,0.465-1.007,0.542
	c-0.388,0.078-0.724,0.117-1.008,0.117h-7.632c-0.543,0-0.982-0.071-1.318-0.213c-0.336-0.141-0.607-0.343-0.813-0.601
	c-0.207-0.257-0.382-0.575-0.523-0.949c-0.143-0.374-0.291-0.78-0.446-1.22l-0.504-1.744c-0.697,0.697-1.491,1.382-2.382,2.054
	c-0.891,0.672-1.873,1.272-2.945,1.801c-1.072,0.53-2.221,0.956-3.448,1.278c-1.227,0.323-2.499,0.485-3.816,0.485
	c-2.351,0-4.605-0.297-6.761-0.891c-2.157-0.594-4.171-1.44-6.044-2.538c-1.873-1.098-3.571-2.415-5.094-3.951
	c-1.525-1.537-2.836-3.248-3.933-5.134c-1.098-1.885-1.944-3.919-2.538-6.102c-0.594-2.183-0.891-4.462-0.891-6.838
	c0-3.59,0.659-6.929,1.976-10.016c1.318-3.086,3.112-5.772,5.386-8.058c2.272-2.286,4.945-4.081,8.019-5.386
	c3.074-1.304,6.367-1.956,9.88-1.956c1.601,0,3.093,0.181,4.475,0.542c1.381,0.363,2.647,0.853,3.797,1.472
	c1.149,0.62,2.189,1.363,3.119,2.228c0.929,0.866,1.743,1.802,2.44,2.809l1.124-3.526c0.258-0.645,0.471-1.168,0.639-1.569
	c0.168-0.4,0.349-0.697,0.543-0.891c0.193-0.193,0.432-0.323,0.716-0.387c0.284-0.064,0.684-0.097,1.201-0.097h5.773
	c0.284,0,0.62,0.039,1.008,0.116c0.387,0.078,0.722,0.259,1.007,0.543c0.361,0.284,0.62,0.607,0.775,0.968
	c0.154,0.362,0.232,0.775,0.232,1.24V210.139z"/>
<path style="fill:#0033FF;" d="M148.957,146.886c0-0.826,0.206-1.524,0.62-2.092c0.413-0.568,1.123-0.852,2.131-0.852h9.492
	c0.258,0,0.529,0.071,0.814,0.212c0.283,0.143,0.548,0.343,0.794,0.601c0.245,0.259,0.451,0.568,0.62,0.93
	c0.167,0.362,0.251,0.762,0.251,1.201v63.137c0,0.982-0.277,1.724-0.833,2.228c-0.555,0.503-1.272,0.755-2.15,0.755h-8.988
	c-1.008,0-1.718-0.252-2.131-0.755c-0.414-0.504-0.62-1.246-0.62-2.228V146.886z"/>
<path style="fill:#0033FF;" d="M189.483,188.443c0,1.705,0.265,3.3,0.795,4.784c0.528,1.487,1.278,2.771,2.247,3.855
	c0.968,1.086,2.143,1.944,3.525,2.577s2.938,0.95,4.669,0.95c1.678,0,3.196-0.317,4.552-0.95c1.356-0.633,2.505-1.491,3.448-2.577
	c0.943-1.084,1.666-2.368,2.17-3.855c0.503-1.484,0.756-3.079,0.756-4.784c0-1.653-0.253-3.228-0.756-4.727
	c-0.504-1.498-1.227-2.815-2.17-3.952c-0.943-1.136-2.092-2.034-3.448-2.692c-1.356-0.659-2.874-0.989-4.552-0.989
	c-1.731,0-3.287,0.33-4.669,0.989c-1.382,0.658-2.557,1.556-3.525,2.692c-0.969,1.137-1.719,2.454-2.247,3.952
	C189.748,185.215,189.483,186.79,189.483,188.443 M175.342,188.443c0-2.376,0.303-4.662,0.91-6.858
	c0.607-2.195,1.459-4.229,2.557-6.102c1.098-1.872,2.415-3.577,3.952-5.114c1.536-1.537,3.248-2.847,5.134-3.933
	c1.885-1.084,3.919-1.923,6.102-2.517c2.182-0.595,4.462-0.892,6.838-0.892c3.512,0,6.812,0.653,9.899,1.957
	c3.086,1.304,5.773,3.099,8.058,5.385c2.286,2.286,4.094,4.972,5.425,8.058c1.33,3.088,1.995,6.426,1.995,10.016
	c0,2.377-0.304,4.656-0.911,6.838c-0.606,2.183-1.459,4.217-2.557,6.103c-1.098,1.885-2.415,3.596-3.952,5.133
	s-3.248,2.854-5.133,3.951c-1.886,1.099-3.907,1.944-6.063,2.538c-2.157,0.594-4.411,0.891-6.761,0.891
	c-2.376,0-4.656-0.297-6.838-0.891c-2.183-0.594-4.217-1.439-6.102-2.538c-1.886-1.097-3.598-2.414-5.134-3.951
	c-1.537-1.537-2.854-3.248-3.952-5.133c-1.098-1.886-1.95-3.92-2.557-6.103C175.645,193.099,175.342,190.82,175.342,188.443"/>
<path style="fill:#0033FF;" d="M245.157,197.702c0.697,0.698,1.453,1.285,2.266,1.763c0.814,0.479,1.595,0.866,2.345,1.163
	c0.748,0.297,1.407,0.509,1.975,0.639c0.568,0.13,0.955,0.193,1.163,0.193c0.49,0,1.116-0.019,1.879-0.057
	c0.761-0.039,1.491-0.155,2.189-0.349c0.697-0.194,1.298-0.51,1.801-0.95c0.504-0.439,0.756-1.058,0.756-1.859
	c0-0.723-0.142-1.298-0.426-1.724c-0.285-0.426-0.698-0.788-1.24-1.085c-0.543-0.297-1.208-0.562-1.996-0.794
	c-0.788-0.233-1.672-0.504-2.654-0.814c-3.099-0.827-5.656-1.821-7.671-2.983c-2.014-1.163-3.61-2.46-4.784-3.894
	c-1.176-1.433-1.996-2.977-2.461-4.63c-0.465-1.653-0.697-3.396-0.697-5.23c0-2.144,0.426-4.093,1.279-5.85
	c0.852-1.756,2.066-3.261,3.641-4.514c1.575-1.252,3.461-2.221,5.657-2.905c2.195-0.685,4.636-1.028,7.322-1.028
	c1.628,0,3.152,0.136,4.572,0.408c1.42,0.27,2.776,0.697,4.068,1.278c1.292,0.581,2.551,1.33,3.778,2.247
	c1.226,0.917,2.446,2.008,3.661,3.273c0.439,0.518,0.665,1.002,0.678,1.454c0.013,0.452-0.278,0.936-0.872,1.453
	c-1.007,0.827-1.97,1.641-2.886,2.44c-0.917,0.802-1.867,1.693-2.848,2.674c-0.31,0.258-0.62,0.42-0.929,0.484
	c-0.311,0.065-0.608,0.058-0.892-0.019c-0.284-0.078-0.556-0.207-0.813-0.387c-0.259-0.181-0.491-0.401-0.698-0.659
	c-0.904-1.008-1.937-1.686-3.099-2.035c-1.163-0.348-2.247-0.522-3.255-0.522c-1.266,0-2.273,0.219-3.022,0.658
	c-0.749,0.44-1.098,1.111-1.046,2.015c0.052,0.672,0.304,1.195,0.756,1.569c0.451,0.374,1.007,0.678,1.666,0.91
	c0.659,0.233,1.356,0.421,2.092,0.562c0.736,0.143,1.414,0.304,2.034,0.485c2.324,0.749,4.455,1.563,6.393,2.44
	c1.937,0.879,3.615,1.957,5.036,3.235c1.421,1.279,2.525,2.809,3.313,4.592c0.787,1.782,1.182,3.952,1.182,6.508
	c0,2.558-0.511,4.844-1.531,6.858c-1.021,2.014-2.421,3.707-4.204,5.075c-1.782,1.37-3.893,2.416-6.334,3.139
	c-2.441,0.722-5.07,1.085-7.884,1.085c-1.602,0-3.229-0.143-4.882-0.427c-1.654-0.285-3.254-0.742-4.804-1.375
	s-3.022-1.446-4.417-2.441c-1.395-0.994-2.634-2.202-3.719-3.623c-0.285-0.361-0.498-0.742-0.64-1.142
	c-0.142-0.4-0.207-0.794-0.193-1.182c0.012-0.387,0.09-0.743,0.232-1.065c0.142-0.323,0.368-0.601,0.678-0.833l4.998-4.999
	c0.62-0.516,1.168-0.697,1.647-0.542C243.794,196.54,244.408,196.98,245.157,197.702"/>
<path style="fill:#0033FF;" d="M286.496,166.824c0-0.827,0.232-1.536,0.697-2.13c0.465-0.595,1.188-0.892,2.17-0.892h8.872
	c0.31,0,0.645,0.072,1.008,0.213c0.361,0.143,0.697,0.349,1.007,0.62c0.31,0.271,0.574,0.588,0.794,0.949
	c0.219,0.362,0.329,0.775,0.329,1.24v43.199c0,0.982-0.271,1.724-0.813,2.228c-0.543,0.503-1.317,0.755-2.325,0.755h-8.872
	c-1.912,0-2.867-0.994-2.867-2.983V166.824z M286.496,147.22c0-1.085,0.232-1.853,0.697-2.305s1.188-0.678,2.17-0.678h8.988
	c0.904,0,1.633,0.226,2.189,0.678s0.833,1.22,0.833,2.305v7.555c0,0.31-0.071,0.646-0.213,1.007c-0.142,0.362-0.342,0.711-0.6,1.046
	c-0.259,0.336-0.576,0.614-0.949,0.833c-0.375,0.22-0.795,0.33-1.26,0.33h-8.988c-1.912,0-2.867-1.072-2.867-3.216V147.22z"/>
<g>
</g>
<g>
</g>
<g>
</g>
<g>
</g>
<g>
</g>
<g>
</g>
</svg>
