<svg xmlns="http://www.w3.org/2000/svg" xmlns:xlink="http://www.w3.org/1999/xlink" xml:space="preserve" enable-background="new 0 0 340.73 254.078" viewBox="0 0 340.73 254.078"><path fill="#ffff" d="M158.456 52.426h-13.082c-1.014 0-1.866.344-2.554 1.029-.685.688-1.029 1.54-1.029 2.554v44.08c0 .537-.18 1-.538 1.388a1.75 1.75 0 0 1-1.344.582h-8.422c-.538 0-.999-.193-1.389-.582a1.896 1.896 0 0 1-.583-1.388v-44.08c0-2.209.42-4.269 1.255-6.182a16.233 16.233 0 0 1 3.405-5.017 16.233 16.233 0 0 1 5.017-3.405c1.913-.836 3.973-1.255 6.182-1.255h13.082c1.375 0 2.27-.102 2.687-.313.419-.209.628-.343.628-.403.12-.119.284-.462.492-1.031.21-.566.314-1.568.314-3.001v-1.075c0-.298.179-.552.538-.761.358-.209.805-.314 1.343-.314h11.111c.537 0 1 .105 1.388.314.389.209.583.463.583.761v1.075c0 1.433.089 2.435.269 3.001.179.569.329.912.447 1.031.06.06.285.194.673.403.389.211 1.27.313 2.642.313h13.171c2.151 0 4.181.419 6.093 1.255a16.233 16.233 0 0 1 5.017 3.405 16.233 16.233 0 0 1 3.405 5.017c.836 1.913 1.255 3.973 1.255 6.182v44.08c0 .537-.18 1-.538 1.388a1.752 1.752 0 0 1-1.344.582h-8.422c-.538 0-.999-.193-1.388-.582a1.897 1.897 0 0 1-.584-1.388v-44.08c0-1.014-.327-1.866-.985-2.554-.657-.685-1.493-1.029-2.509-1.029h-13.171c-3.762 0-6.838-.925-9.228-2.777a17.148 17.148 0 0 1-1.3-1.076 7.695 7.695 0 0 1-1.03-1.164c-.596.776-1.343 1.522-2.24 2.24-2.448 1.852-5.555 2.777-9.317 2.777"/><path fill="#ffff" d="M162.686 74.367c.543 0 1.009.196 1.402.588.392.394.588.86.588 1.403v9.204c0 .543-.196.995-.588 1.357a1.997 1.997 0 0 1-1.402.543h-8.415a1.998 1.998 0 0 1-1.403-.543 1.767 1.767 0 0 1-.588-1.357v-9.204c0-.543.195-1.009.588-1.403.392-.392.86-.588 1.403-.588h8.415zM185.627 74.367c.543 0 1.009.196 1.402.588.392.394.588.86.588 1.403v23.9c0 .543-.196.996-.588 1.358a2.001 2.001 0 0 1-1.402.543h-8.415a2.002 2.002 0 0 1-1.403-.543 1.769 1.769 0 0 1-.588-1.358v-23.9c0-.543.195-1.009.588-1.403.392-.392.86-.588 1.403-.588h8.415zM38.655 145.912c0-.514.174-.927.523-1.236.348-.309.781-.464 1.298-.464h41.688c.465 0 .878.142 1.24.425.361.284.567.709.619 1.275v9.619c0 .464-.161.908-.484 1.333-.323.425-.781.637-1.375.637H68.797v53.682c0 .465-.167.885-.502 1.26-.336.376-.773.563-1.314.563H55.62c-.439 0-.851-.175-1.237-.524a1.681 1.681 0 0 1-.58-1.299v-53.682H40.476c-.517 0-.95-.167-1.298-.502-.349-.334-.523-.824-.523-1.468v-9.619zM97.623 188.443c0 1.705.264 3.299.794 4.784.529 1.486 1.284 2.771 2.267 3.855a10.748 10.748 0 0 0 3.545 2.577c1.381.633 2.912.949 4.591.949 1.73 0 3.338-.316 4.823-.949a12.33 12.33 0 0 0 3.875-2.577 11.673 11.673 0 0 0 2.576-3.855c.62-1.485.93-3.079.93-4.784 0-1.653-.31-3.229-.93-4.727a12.542 12.542 0 0 0-2.576-3.952 12.232 12.232 0 0 0-3.875-2.693c-1.485-.658-3.093-.988-4.823-.988-1.679 0-3.21.33-4.591.988a10.72 10.72 0 0 0-3.545 2.693c-.983 1.137-1.738 2.454-2.267 3.952a14.067 14.067 0 0 0-.794 4.727m38.162 21.696c0 .439-.078.859-.232 1.259a1.928 1.928 0 0 1-.775.949c-.285.285-.62.465-1.007.542a5.218 5.218 0 0 1-1.008.117h-7.632c-.543 0-.982-.071-1.318-.213a2.02 2.02 0 0 1-.813-.601 3.438 3.438 0 0 1-.523-.949c-.143-.374-.291-.78-.446-1.22l-.504-1.744a22.65 22.65 0 0 1-2.382 2.054 18.389 18.389 0 0 1-6.393 3.079 14.928 14.928 0 0 1-3.816.485c-2.351 0-4.605-.297-6.761-.891a25.032 25.032 0 0 1-6.044-2.538 24.816 24.816 0 0 1-5.094-3.951 25.36 25.36 0 0 1-3.933-5.134 25.217 25.217 0 0 1-2.538-6.102 25.928 25.928 0 0 1-.891-6.838c0-3.59.659-6.929 1.976-10.016 1.318-3.086 3.112-5.772 5.386-8.058 2.272-2.286 4.945-4.081 8.019-5.386 3.074-1.304 6.367-1.956 9.88-1.956 1.601 0 3.093.181 4.475.542a17.21 17.21 0 0 1 3.797 1.472 15.053 15.053 0 0 1 3.119 2.228 17.293 17.293 0 0 1 2.44 2.809l1.124-3.526c.258-.645.471-1.168.639-1.569.168-.4.349-.697.543-.891.193-.193.432-.323.716-.387s.684-.097 1.201-.097h5.773c.284 0 .62.039 1.008.116.387.078.722.259 1.007.543.361.284.62.607.775.968.154.362.232.775.232 1.24v43.664zM148.957 146.886c0-.826.206-1.524.62-2.092.413-.568 1.123-.852 2.131-.852h9.492c.258 0 .529.071.814.212.283.143.548.343.794.601.245.259.451.568.62.93.167.362.251.762.251 1.201v63.137c0 .982-.277 1.724-.833 2.228-.555.503-1.272.755-2.15.755h-8.988c-1.008 0-1.718-.252-2.131-.755-.414-.504-.62-1.246-.62-2.228v-63.137zM189.483 188.443c0 1.705.265 3.3.795 4.784.528 1.487 1.278 2.771 2.247 3.855.968 1.086 2.143 1.944 3.525 2.577s2.938.95 4.669.95c1.678 0 3.196-.317 4.552-.95a10.237 10.237 0 0 0 3.448-2.577c.943-1.084 1.666-2.368 2.17-3.855.503-1.484.756-3.079.756-4.784 0-1.653-.253-3.228-.756-4.727-.504-1.498-1.227-2.815-2.17-3.952a10.228 10.228 0 0 0-3.448-2.692c-1.356-.659-2.874-.989-4.552-.989-1.731 0-3.287.33-4.669.989a10.507 10.507 0 0 0-3.525 2.692c-.969 1.137-1.719 2.454-2.247 3.952a14.072 14.072 0 0 0-.795 4.727m-14.141 0c0-2.376.303-4.662.91-6.858a25.38 25.38 0 0 1 2.557-6.102 25.318 25.318 0 0 1 3.952-5.114 24.53 24.53 0 0 1 5.134-3.933 25.882 25.882 0 0 1 12.94-3.409c3.512 0 6.812.653 9.899 1.957 3.086 1.304 5.773 3.099 8.058 5.385 2.286 2.286 4.094 4.972 5.425 8.058 1.33 3.088 1.995 6.426 1.995 10.016 0 2.377-.304 4.656-.911 6.838a25.775 25.775 0 0 1-2.557 6.103 25.078 25.078 0 0 1-9.085 9.084 25.366 25.366 0 0 1-6.063 2.538 25.353 25.353 0 0 1-6.761.891c-2.376 0-4.656-.297-6.838-.891a25.177 25.177 0 0 1-6.102-2.538 25.078 25.078 0 0 1-9.086-9.084 25.816 25.816 0 0 1-2.557-6.103 25.395 25.395 0 0 1-.91-6.838M245.157 197.702a11.265 11.265 0 0 0 2.266 1.763c.814.479 1.595.866 2.345 1.163a13.81 13.81 0 0 0 1.975.639c.568.13.955.193 1.163.193.49 0 1.116-.019 1.879-.057a10.078 10.078 0 0 0 2.189-.349 4.542 4.542 0 0 0 1.801-.95c.504-.439.756-1.058.756-1.859 0-.723-.142-1.298-.426-1.724-.285-.426-.698-.788-1.24-1.085-.543-.297-1.208-.562-1.996-.794-.788-.233-1.672-.504-2.654-.814-3.099-.827-5.656-1.821-7.671-2.983-2.014-1.163-3.61-2.46-4.784-3.894-1.176-1.433-1.996-2.977-2.461-4.63a19.225 19.225 0 0 1-.697-5.23c0-2.144.426-4.093 1.279-5.85.852-1.756 2.066-3.261 3.641-4.514 1.575-1.252 3.461-2.221 5.657-2.905 2.195-.685 4.636-1.028 7.322-1.028a24.3 24.3 0 0 1 4.572.408c1.42.27 2.776.697 4.068 1.278a20.054 20.054 0 0 1 3.778 2.247c1.226.917 2.446 2.008 3.661 3.273.439.518.665 1.002.678 1.454.013.452-.278.936-.872 1.453-1.007.827-1.97 1.641-2.886 2.44a58.637 58.637 0 0 0-2.848 2.674c-.31.258-.62.42-.929.484a1.887 1.887 0 0 1-.892-.019 2.625 2.625 0 0 1-.813-.387 3.367 3.367 0 0 1-.698-.659c-.904-1.008-1.937-1.686-3.099-2.035-1.163-.348-2.247-.522-3.255-.522-1.266 0-2.273.219-3.022.658-.749.44-1.098 1.111-1.046 2.015.052.672.304 1.195.756 1.569.451.374 1.007.678 1.666.91.659.233 1.356.421 2.092.562a22.8 22.8 0 0 1 2.034.485 60.654 60.654 0 0 1 6.393 2.44c1.937.879 3.615 1.957 5.036 3.235a13.375 13.375 0 0 1 3.313 4.592c.787 1.782 1.182 3.952 1.182 6.508 0 2.558-.511 4.844-1.531 6.858a14.68 14.68 0 0 1-4.204 5.075c-1.782 1.37-3.893 2.416-6.334 3.139-2.441.722-5.07 1.085-7.884 1.085-1.602 0-3.229-.143-4.882-.427-1.654-.285-3.254-.742-4.804-1.375s-3.022-1.446-4.417-2.441a17.304 17.304 0 0 1-3.719-3.623 3.998 3.998 0 0 1-.64-1.142 3.172 3.172 0 0 1-.193-1.182c.012-.387.09-.743.232-1.065.142-.323.368-.601.678-.833l4.998-4.999c.62-.516 1.168-.697 1.647-.542.477.155 1.091.595 1.84 1.317M286.496 166.824c0-.827.232-1.536.697-2.13.465-.595 1.188-.892 2.17-.892h8.872a2.8 2.8 0 0 1 1.008.213c.361.143.697.349 1.007.62.31.271.574.588.794.949.219.362.329.775.329 1.24v43.199c0 .982-.271 1.724-.813 2.228-.543.503-1.317.755-2.325.755h-8.872c-1.912 0-2.867-.994-2.867-2.983v-43.199zm0-19.604c0-1.085.232-1.853.697-2.305s1.188-.678 2.17-.678h8.988c.904 0 1.633.226 2.189.678s.833 1.22.833 2.305v7.555c0 .31-.071.646-.213 1.007a4.27 4.27 0 0 1-.6 1.046 3.289 3.289 0 0 1-.949.833c-.375.22-.795.33-1.26.33h-8.988c-1.912 0-2.867-1.072-2.867-3.216v-7.555z"/></svg>