<svg version="1.1" id="Calque_1" xmlns="http://www.w3.org/2000/svg" x="0" y="0" viewBox="0 0 1200 1200" style="enable-background:new 0 0 1200 1200" xml:space="preserve"><style>.st0{fill:#fff}</style><path class="st0" d="M481.19 444.91H346.13c-10.47 0-19.26 3.55-26.37 10.62-7.07 7.1-10.62 15.9-10.62 26.37v455.06c0 5.54-1.86 10.32-5.55 14.33-3.7 4.02-8.33 6.01-13.87 6.01h-86.94c-5.55 0-10.31-1.99-14.34-6.01-4.01-4.01-6.02-8.79-6.02-14.33V481.9c0-22.8 4.34-44.07 12.96-63.82 8.65-19.73 20.35-37 35.15-51.79 14.79-14.8 32.06-26.5 51.79-35.15 19.75-8.63 41.02-12.96 63.82-12.96h135.05c14.19 0 23.43-1.05 27.74-3.23 4.33-2.16 6.48-3.54 6.48-4.16 1.24-1.23 2.93-4.77 5.08-10.64 2.17-5.84 3.24-16.19 3.24-30.98v-11.1c0-3.08 1.85-5.7 5.55-7.86 3.7-2.16 8.31-3.24 13.86-3.24h114.7c5.54 0 10.32 1.08 14.33 3.24 4.02 2.16 6.02 4.78 6.02 7.86v11.1c0 14.79.92 25.14 2.78 30.98 1.85 5.87 3.4 9.42 4.61 10.64.62.62 2.94 2 6.95 4.16 4.02 2.18 13.11 3.23 27.27 3.23h135.97c22.21 0 43.16 4.33 62.9 12.96 19.73 8.65 37 20.35 51.79 35.15 14.8 14.79 26.5 32.06 35.15 51.79 8.63 19.75 12.96 41.02 12.96 63.82v455.06c0 5.54-1.86 10.32-5.55 14.33-3.71 4.02-8.33 6.01-13.87 6.01h-86.94c-5.55 0-10.31-1.99-14.33-6.01-4.01-4.01-6.03-8.79-6.03-14.33V481.9c0-10.47-3.38-19.26-10.17-26.37-6.78-7.07-15.41-10.62-25.9-10.62H719.81c-38.84 0-70.59-9.55-95.27-28.67-4.92-3.71-9.4-7.41-13.42-11.11-4-3.7-7.54-7.7-10.63-12.02-6.15 8.01-13.86 15.71-23.12 23.12-25.27 19.13-57.35 28.68-96.18 28.68"/><path class="st0" d="M524.85 617.35c5.61 0 10.42 2.02 14.47 6.07 4.05 4.07 6.07 8.88 6.07 14.48v95.02c0 5.61-2.02 10.27-6.07 14.01-4.06 3.74-8.87 5.61-14.47 5.61h-86.87c-5.61 0-10.44-1.87-14.48-5.61-4.06-3.74-6.07-8.4-6.07-14.01V637.9c0-5.61 2.01-10.42 6.07-14.48 4.05-4.05 8.88-6.07 14.48-6.07h86.87z"/><path style="fill:none" d="M182.42 246.97h836.16v711.36H182.42z"/><path class="st0" d="M423.13 874.15c-2.04-1.19-3.2-2.74-3.5-4.63-.29-1.92.2-3.76 1.51-5.56l26.48-42.59c1.31-1.92 2.94-3 4.84-3.23 1.92-.23 3.7.23 5.39 1.43 21.47 13.49 44.19 23.74 68.16 30.79 23.62 6.55 48.5 9.85 74.63 9.85 25.9 0 50.74-3.35 74.54-10.02 23.83-6.67 46.64-16.89 68.45-30.61 1.57-1.19 3.29-1.66 5.21-1.43 1.89.23 3.5 1.31 4.84 3.23l26.48 42.59c1.43 1.81 1.95 3.64 1.6 5.56-.35 1.89-1.54 3.44-3.58 4.63-26.01 16.49-53.89 29.07-83.66 37.78-29.77 8.71-61.05 13.05-93.88 13.05-32.8 0-64.08-4.34-93.85-13.05-29.77-8.72-57.65-21.31-83.66-37.79zm206.2-231.47c-3.38 0-6.1.91-8.13 2.76-2.02 1.86-3.05 4.66-3.05 8.37v66.91c0 2.89 1.03 5.57 3.05 8.13 2.02 2.52 4.74 3.79 8.13 3.79h72.72c15.88 0 30.85-4.17 44.96-12.42 14.11-8.29 25.49-20.13 34.11-35.47.49-.54.74-1.69.74-3.55 0-2.39-.29-4.29-.87-5.73-.62-1.4-1.48-2.56-2.68-3.42l-14.44-17.49c-1.36-1.86-2.76-3.05-4.17-3.67-1.44-.58-2.85-.87-4.21-.87-2.19 0-4.37 1.15-6.6 3.42-2.19 2.27-4.66 4.83-7.47 7.59-2.76 2.8-5.98 5.32-9.61 7.59-3.63 2.31-8 3.42-13.08 3.42h-11.14c-3.22 0-4.99-1.48-5.32-4.54v-14.44c-.33-6.93-4.04-10.39-11.14-10.39h-61.8z"/></svg>