<?xml version="1.0" encoding="iso-8859-1"?>
<!-- Generator: Adobe Illustrator 26.0.3, SVG Export Plug-In . SVG Version: 6.00 Build 0)  -->
<svg version="1.1" id="Calque_1" xmlns="http://www.w3.org/2000/svg" xmlns:xlink="http://www.w3.org/1999/xlink" x="0px" y="0px"
	 viewBox="0 0 1200 1200" style="enable-background:new 0 0 1200 1200;" xml:space="preserve">
<g>
	<path d="M1003.63,321.781c-8.651-19.728-20.348-36.999-35.151-51.793c-14.794-14.804-32.065-26.5-51.793-35.151
		c-19.739-8.63-40.695-12.956-62.901-12.956H717.814c-14.164,0-23.259-1.053-27.275-3.231c-4.005-2.158-6.328-3.541-6.948-4.16
		c-1.218-1.229-2.767-4.769-4.615-10.643c-1.858-5.843-2.777-16.187-2.777-30.981v-11.098c0-3.076-2.003-5.698-6.019-7.856
		c-4.005-2.158-8.785-3.242-14.329-3.242H541.148c-5.554,0-10.169,1.084-13.865,3.242c-3.706,2.158-5.554,4.78-5.554,7.856v11.098
		c0,14.794-1.074,25.138-3.242,30.981c-2.147,5.874-3.84,9.415-5.079,10.643c0,0.619-2.158,2.003-6.483,4.16
		c-4.305,2.178-13.544,3.231-27.739,3.231H344.135c-22.805,0-44.071,4.326-63.82,12.956c-19.728,8.651-36.999,20.348-51.793,35.151
		c-14.804,14.794-26.5,32.065-35.151,51.793c-8.62,19.749-12.956,41.015-12.956,63.82V840.66c0,5.544,2.013,10.323,6.019,14.329
		c4.026,4.016,8.785,6.008,14.339,6.008h86.944c5.544,0,10.179-1.992,13.875-6.008c3.696-4.005,5.554-8.785,5.554-14.329V385.601
		c0-10.468,3.551-19.264,10.623-26.366c7.103-7.072,15.898-10.623,26.366-10.623h135.052c38.837,0,70.912-9.549,96.184-28.668
		c9.26-7.412,16.972-15.114,23.125-23.125c3.097,4.315,6.638,8.321,10.633,12.017c4.016,3.696,8.496,7.402,13.421,11.108
		c24.673,19.119,56.428,28.668,95.265,28.668h135.971c10.489,0,19.119,3.551,25.902,10.623c6.793,7.103,10.169,15.898,10.169,26.366
		V840.66c0,5.544,2.023,10.323,6.029,14.329c4.016,4.016,8.775,6.008,14.329,6.008h86.944c5.544,0,10.169-1.992,13.875-6.008
		c3.696-4.005,5.554-8.785,5.554-14.329V385.601C1016.586,362.796,1012.26,341.53,1003.63,321.781z"/>
	<path d="M435.973,656.239h86.872c5.606,0,10.416-1.869,14.474-5.606c4.047-3.737,6.07-8.403,6.07-14.009v-95.017
		c0-5.606-2.023-10.416-6.07-14.484c-4.057-4.047-8.868-6.07-14.474-6.07h-86.872c-5.606,0-10.437,2.023-14.484,6.07
		c-4.057,4.067-6.07,8.878-6.07,14.484v95.017c0,5.606,2.013,10.272,6.07,14.009C425.536,654.37,430.368,656.239,435.973,656.239z"
		/>
	<path d="M758.005,656.239c5.606,0,10.416-1.869,14.474-5.606c4.047-3.737,6.07-8.403,6.07-14.009v-95.017
		c0-5.606-2.023-10.416-6.07-14.484c-4.057-4.047-8.868-6.07-14.474-6.07h-86.872c-5.606,0-10.437,2.023-14.484,6.07
		c-4.057,4.067-6.07,8.878-6.07,14.484v95.017c0,5.606,2.013,10.272,6.07,14.009c4.047,3.737,8.878,5.606,14.484,5.606H758.005z"/>
	<path d="M776.243,752.704v-37.233c0-1.829-0.48-3.301-1.439-4.394c-0.959-1.093-2.442-1.65-4.449-1.65H644.35h-97.979H420.366
		c-2.007,0-3.49,0.558-4.449,1.65c-0.959,1.093-1.439,2.565-1.439,4.394v40.703c0,4.193,1.963,6.289,5.888,6.289h124.164h87.01
		c-0.53,0.346-1.042,0.717-1.516,1.123c-2.323,1.998-3.713,5.429-3.681,8.479c-0.114,35.711-30.475,63.873-66.884,61.654
		c-3.286-0.201-6.469,1.136-8.626,3.628c-2.145,2.483-3.035,5.844-2.357,9.042c6.125,29.878-16.643,53.827-42.681,60.841
		c-4.869,1.314-8.132,5.893-7.783,10.94c5.883,83.088,74.681,153.789,157.079,166.146c97.9,14.682,190.288-53.61,204.97-151.51
		C871.032,859.653,835.667,789.581,776.243,752.704z M750.41,810.112c-0.865,5.768-6.242,9.742-12.01,8.878
		c-5.769-0.865-9.742-6.242-8.878-12.01c0.865-5.768,6.241-9.743,12.01-8.878C747.3,798.967,751.275,804.345,750.41,810.112z
		 M642.659,953.599c-1.727,11.515-12.505,19.482-24.02,17.755c-11.515-1.727-19.482-12.505-17.755-24.02s12.505-19.482,24.02-17.755
		C636.418,931.306,644.386,942.084,642.659,953.599z M677.31,1012.722c-0.865,5.768-6.242,9.742-12.01,8.877
		c-5.769-0.865-9.742-6.242-8.878-12.01c0.865-5.768,6.241-9.743,12.01-8.877C674.201,1001.577,678.175,1006.955,677.31,1012.722z
		 M683.387,895.635c-17.277-2.591-29.224-18.753-26.633-36.03s18.753-29.224,36.03-26.633s29.224,18.752,26.633,36.03
		C716.826,886.279,700.664,898.226,683.387,895.635z M766.418,982.837c-2.591,17.277-18.753,29.223-36.03,26.633
		c-17.277-2.591-29.224-18.753-26.633-36.03s18.753-29.224,36.03-26.633C757.062,949.398,769.009,965.56,766.418,982.837z
		 M801.401,891.976c-1.727,11.515-12.505,19.482-24.02,17.755s-19.482-12.505-17.755-24.02c1.727-11.515,12.505-19.482,24.02-17.755
		S803.128,880.461,801.401,891.976z"/>
</g>
<g>
</g>
<g>
</g>
<g>
</g>
<g>
</g>
<g>
</g>
<g>
</g>
<g>
</g>
<g>
</g>
<g>
</g>
<g>
</g>
<g>
</g>
<g>
</g>
<g>
</g>
<g>
</g>
<g>
</g>
</svg>
