<?xml version="1.0" encoding="utf-8"?>
<!-- Generator: Adobe Illustrator 26.0.3, SVG Export Plug-In . SVG Version: 6.00 Build 0)  -->
<svg version="1.1" id="Calque_1" xmlns="http://www.w3.org/2000/svg" xmlns:xlink="http://www.w3.org/1999/xlink" x="0px" y="0px"
     viewBox="0 0 553 125.1" style="enable-background:new 0 0 553 125.1;" xml:space="preserve">
<style type="text/css">
	.st0{fill:#0033FF;}
  .st1{fill:#FAD922;}
</style>
  <path class="st0" d="M517.9,48.8h-128c-36.9,0-67.2,9.1-91.3,27.2c-8.7,7.1-16.1,14.3-21.9,21.9c-2.9-4.2-6.2-7.9-10.1-11.4
	c-3.7-3.4-8-7-12.7-10.5c-23.4-18.2-53.5-27.2-90.3-27.2h-129c-10,0-18.2-3.3-24.6-10.1c-5.1-5.3-8.1-11.6-9.2-18.8v15.2
	c0,9.6,3.1,17.7,9.3,24.2c6.2,6.5,14.2,9.7,23.8,9.7h124.6c35.6,0,64.7,8.7,87.3,26.3c4.5,3.4,8.6,6.8,12.3,10.1
	c3.7,3.4,6.9,7,9.7,11c5.6-7.3,12.8-14.4,21.2-21.2c23.2-17.5,52.5-26.3,88.2-26.3H501c9.6,0,17.7-3.2,24.2-9.7
	c4-4,6.7-8.6,8.3-13.8C528.8,47.7,523.6,48.8,517.9,48.8z"/>
  <path class="st1" d="M553,12.9v0.8c0,10-3.4,18.3-10.1,25c-6.8,6.8-15.1,10.1-25,10.1h-128c-36.9,0-67.2,9.1-91.3,27.2
	c-8.7,7.1-16.1,14.3-21.9,21.9c-2.9-4.2-6.2-7.9-10.1-11.4c-3.7-3.4-8-7-12.7-10.5c-23.4-18.2-53.5-27.2-90.3-27.2h-129
	c-4.5,0-8.6-0.7-12.3-2c1.3,2.6,3,5,5.1,7.2c6.1,6.6,14,10,23.5,10.2l124.6,2.5c35.6,0.7,64.5,10,86.8,28c4.4,3.5,8.5,6.9,12.1,10.4
	c3.6,3.5,6.8,7.2,9.5,11.1c5.8-7.2,13-14.2,21.6-20.8c23.5-17.1,53.1-25.2,88.7-24.5l123.7,2.5c9.6,0.2,17.8-2.9,24.4-9.2
	c6.6-6.3,10-14.4,10.2-24l0.6-27.4C553.1,12.9,553.1,12.9,553,12.9z"/>
</svg>
