<?xml version="1.0" encoding="utf-8"?>
<!-- Generator: Adobe Illustrator 26.0.3, SVG Export Plug-In . SVG Version: 6.00 Build 0)  -->
<svg version="1.0" id="Capa_1" xmlns="http://www.w3.org/2000/svg" xmlns:xlink="http://www.w3.org/1999/xlink" x="0px" y="0px"
	 viewBox="0 0 408.6 408.6" style="enable-background:new 0 0 408.6 408.6;" xml:space="preserve">
<style type="text/css">
	.st0{fill:#0033FF;}
</style>
<g>
	<g>
		<path class="st0" d="M202.3,17.6c-101.8,0-184.7,82.9-184.7,184.7S100.4,387,202.3,387S387,304.1,387,202.3S304.1,17.6,202.3,17.6
			z M305.5,153.7l-118,117.1c-6.9,6.9-18.1,7.4-25.5,0.5l-62.5-56.9c-7.4-6.9-7.9-18.5-1.4-25.9c6.9-7.4,18.5-7.9,25.9-0.9
			l49.5,45.4l105.5-105.5c7.4-7.4,19-7.4,26.4,0C312.9,134.7,312.9,146.3,305.5,153.7z"/>
	</g>
</g>
</svg>