<?xml version="1.0" encoding="utf-8"?>
<!-- Generator: Adobe Illustrator 26.1.0, SVG Export Plug-In . SVG Version: 6.00 Build 0)  -->
<svg version="1.1" id="Calque_1" xmlns="http://www.w3.org/2000/svg" xmlns:xlink="http://www.w3.org/1999/xlink" x="0px" y="0px"
	 viewBox="0 0 512 512" style="enable-background:new 0 0 512 512;" fill="#0033FF" xml:space="preserve">
<path d="M446.8,21.1L446.8,21.1c-24.5-7.9-57.5-12.9-93.1-14c-2.5-0.1-30.6-0.1-32.3,0c-35.6,1.1-68.6,6.1-93.1,14
	c-21.5,6.9-47.2,20-47.2,42.6v58.1c-29.6-0.4-59.4,1.9-84.8,6.6c-32.5,6-55.2,15-67.5,27c-7.2,6.9-10.8,14.7-10.8,23.3v248.2
	c0,13.3,9,22.7,16.5,28.2c8.7,6.4,20.9,11.8,36.4,16.2c27.6,7.9,64.5,12.2,104,12.2c39.3,0,76-4.3,103.4-12.2
	c15.4-4.4,27.6-9.9,36.2-16.3c7.5-5.5,16.4-14.9,16.4-28.3v-38.4c69.4,1,129.8-12.1,152.1-33.3c7.2-6.9,11.1-15,11.1-23.6V63.7
	C494,41,468.3,28,446.8,21.1z M278,134.2c-23.7-6.7-50-9.7-64.7-11v-22.7c29.7,13.3,77,20,124.3,20c47.3,0,94.6-6.7,124.3-20v64.6
	c-0.2,0.3-0.5,0.7-1.1,1.2c-6.7,6.4-24.8,13.1-47.4,17.6c-24.3,4.9-53.3,7.2-82.5,6.8v-12.2C330.9,159.1,313.1,144.2,278,134.2z
	 M298,178.7c-2.8,2.9-12,8.9-33.3,14.5c-17.3,4.6-47.1,10.1-90.2,10.1c-43.3,0-73.1-5.5-90.4-10.1c-21.2-5.6-30.3-11.7-33.2-14.5
	c2.3-2.3,9.3-7.9,28.8-13.5c52.3-15.2,137.3-15.2,189.5,0C288.7,170.8,295.8,176.4,298,178.7z M298.7,343.1
	c-1.1,1.5-7,7.8-29.5,14.4c-52.3,15.2-137.3,15.2-189.5,0c-22.5-6.6-28.4-12.9-29.5-14.4v-44.9c29.7,13.3,77,20,124.3,20
	c47.3,0,94.6-6.7,124.3-20V343.1z M298.7,260.3c-1.1,1.5-7,7.8-29.5,14.4c-52.3,15.2-137.3,15.2-189.5,0
	c-22.5-6.6-28.4-12.9-29.5-14.4v-44.8c27.8,12.6,72.3,19.8,123.7,19.8c0.3,0,0.7,0,1,0c28.4-0.1,55.9-2.4,79.5-6.9
	c17.8-3.3,32.6-7.7,44.3-12.9V260.3z M50.2,425.8V381c11.7,5.3,26.5,9.6,44.2,12.9c23.6,4.5,51.1,6.9,79.4,6.9
	c51.9,0.2,96.9-7.1,125-19.9v44.8c-1.1,1.5-7,7.8-29.5,14.4c-52.3,15.2-137.3,15.2-189.5,0C57.1,433.6,51.3,427.3,50.2,425.8z
	 M352.7,39.2c39.3,1.3,65.4,6.9,80.4,11.3c17.7,5.3,25.6,10.7,28.1,13.2c-2.7,2.8-11.9,8.9-33.4,14.6c-17.3,4.6-47.1,10.1-90.2,10.1
	c-33.4,0-65.3-3.5-89.9-10c-21.9-5.7-31.1-11.9-33.7-14.7c2.5-2.6,10.4-7.9,28.1-13.2c15-4.5,41.1-10.1,80.4-11.3
	C324.2,39.1,350.9,39.1,352.7,39.2z M461.8,247.9c-0.2,0.3-0.5,0.7-1.1,1.2c-11,10.5-45.7,18.6-75.2,21.9
	c-17.3,1.9-36.1,2.8-54.7,2.5v-50.6c25.4,0.2,90.3-1.3,131-19.8V247.9z M330.9,305.6c53.1,0.8,101.4-6.7,131-20v44.9
	c-0.2,0.3-0.5,0.7-1.1,1.2c-11.3,10.8-59.9,25.5-129.9,24.4V305.6z"/>
</svg>
