<?xml version="1.0" standalone="no"?>
<!DOCTYPE svg PUBLIC "-//W3C//DTD SVG 20010904//EN"
 "http://www.w3.org/TR/2001/REC-SVG-20010904/DTD/svg10.dtd">
<svg version="1.0" xmlns="http://www.w3.org/2000/svg"
 width="503.000000pt" height="503.000000pt" viewBox="0 0 503.000000 503.000000"
 preserveAspectRatio="xMidYMid meet">
<metadata>
Created by potrace 1.16, written by Peter Selinger 2001-2019
</metadata>
<g transform="translate(0.000000,392.000000) scale(0.100000,-0.100000)"
fill="#FAD922" stroke="none">
<path d="M2115 3894 c-250 -20 -259 -22 -282 -49 -29 -33 -29 -57 0 -91 l24
-27 164 11 c701 49 1371 -7 1731 -144 76 -29 148 -77 148 -99 0 -36 -152 -105
-327 -150 -293 -74 -567 -99 -1073 -99 -506 0 -779 25 -1073 99 -175 45 -327
114 -327 150 0 21 70 69 143 98 34 14 121 39 192 57 169 41 207 77 154 144
-26 33 -53 33 -184 2 -246 -60 -394 -138 -436 -231 -15 -32 -19 -65 -19 -162
l0 -121 -62 -6 c-35 -3 -121 -10 -193 -16 -154 -13 -332 -42 -430 -70 -101
-29 -210 -85 -240 -124 l-25 -33 0 -1153 0 -1153 24 -32 c70 -91 337 -168 676
-195 80 -6 169 -14 198 -16 l52 -5 0 -56 c0 -30 7 -70 16 -89 74 -156 445
-272 1024 -319 231 -19 788 -19 1020 0 377 30 665 90 845 174 138 65 194 133
195 237 l0 51 38 7 c20 3 66 6 102 7 93 1 169 13 185 30 7 8 17 26 20 41 6 22
1 33 -24 59 -27 26 -36 30 -69 25 -20 -3 -85 -8 -144 -12 l-108 -6 0 200 0
200 58 6 c31 3 102 8 157 11 198 12 393 47 529 94 33 12 61 21 63 21 1 0 3
-85 3 -190 l0 -190 -47 -23 c-49 -25 -84 -37 -160 -57 -79 -20 -94 -111 -23
-140 22 -9 41 -8 91 5 104 28 224 90 256 132 l28 36 0 1147 0 1147 -28 36
c-71 93 -325 168 -672 197 -71 6 -158 13 -192 16 l-63 6 0 121 c0 102 -3 127
-21 164 -71 147 -378 248 -934 309 -134 15 -853 28 -980 18z m-926 -629 c151
-63 442 -120 761 -151 130 -13 272 -18 550 -18 408 0 595 13 877 60 171 28
368 79 456 118 32 14 60 26 62 26 3 0 5 -133 5 -295 l0 -295 -41 -29 c-71 -52
-250 -109 -453 -146 -107 -19 -136 -38 -136 -87 0 -40 32 -68 78 -68 85 0 351
66 482 119 l70 29 0 -293 0 -294 -36 -29 c-100 -83 -408 -158 -809 -199 -239
-24 -870 -24 -1110 0 -430 43 -777 135 -837 222 -4 5 -8 141 -8 302 l0 292 57
-25 c147 -65 432 -126 743 -160 182 -19 796 -29 982 -16 161 11 188 22 188 77
0 22 -8 43 -21 56 -20 20 -26 20 -187 12 -398 -19 -861 -1 -1177 47 -243 38
-464 103 -545 161 l-40 29 0 296 c0 233 3 295 13 291 6 -3 41 -17 76 -32z
m-239 -285 l0 -150 -62 0 c-169 0 -490 45 -606 84 -80 28 -132 53 -132 65 0
15 87 51 183 76 144 38 384 69 565 74 l52 1 0 -150z m3286 140 c169 -13 318
-36 431 -65 98 -26 183 -61 183 -77 0 -15 -102 -57 -202 -82 -115 -30 -299
-54 -469 -63 l-129 -6 0 151 0 152 29 0 c15 0 86 -5 157 -10z m-3842 -386 c92
-19 278 -41 434 -49 l122 -8 0 -200 0 -200 -126 7 c-267 14 -516 59 -624 113
l-55 28 -3 192 -2 191 91 -29 c50 -17 124 -37 163 -45z m4446 -316 c-73 -59
-364 -118 -664 -134 l-126 -7 0 201 0 202 43 0 c91 0 397 32 490 51 55 11 138
32 185 47 l87 28 3 -186 c2 -177 2 -186 -18 -202z m-4510 -218 c120 -30 455
-70 592 -70 l28 0 0 -201 0 -202 -117 7 c-271 15 -528 62 -633 114 l-55 28 -3
191 -2 192 57 -20 c32 -11 92 -28 133 -39z m4526 -316 c-8 -21 -108 -61 -216
-88 -119 -28 -299 -52 -472 -62 l-118 -7 0 200 0 200 103 7 c289 19 489 51
632 99 l70 24 3 -181 c1 -99 0 -186 -2 -192z m-3596 -190 c295 -100 692 -148
1240 -147 598 0 1050 61 1332 179 32 13 60 24 63 24 3 0 5 -132 5 -293 0 -334
8 -303 -95 -355 -144 -72 -415 -130 -755 -164 -182 -18 -916 -18 -1100 0 -371
36 -682 110 -805 191 l-40 27 -3 298 c-2 282 -1 298 15 291 10 -5 74 -27 143
-51z m-1033 -14 c71 -25 217 -56 328 -69 77 -9 344 -31 383 -31 9 0 12 -47 12
-200 l0 -201 -151 3 -151 3 -21 -27 c-24 -32 -17 -71 18 -94 20 -13 179 -32
288 -34 16 0 17 -16 17 -200 l0 -200 -29 0 c-58 0 -290 21 -391 36 -134 19
-275 56 -340 89 l-50 25 0 191 c0 178 1 191 18 184 33 -15 174 -55 191 -55 22
0 61 36 62 58 4 58 -14 74 -129 110 -153 49 -142 30 -142 254 0 177 1 190 18
183 9 -4 41 -15 69 -25z m4633 -159 c0 -218 9 -199 -115 -244 -121 -43 -339
-78 -577 -92 l-118 -7 0 200 0 200 88 7 c212 15 333 27 412 41 88 15 254 59
280 75 8 4 18 9 23 9 4 0 7 -85 7 -189z m-3474 -640 c152 -38 326 -66 534 -88
239 -24 915 -24 1160 0 317 32 605 93 745 156 37 17 69 31 71 31 2 0 4 -132 4
-293 0 -292 0 -294 -22 -314 -97 -89 -412 -167 -838 -209 -245 -24 -834 -25
-1080 0 -427 42 -741 120 -837 209 -23 20 -23 22 -23 313 l0 292 84 -33 c46
-19 137 -47 202 -64z"/>
</g>
</svg>
