<?xml version="1.0" standalone="no"?>
<!DOCTYPE svg PUBLIC "-//W3C//DTD SVG 20010904//EN"
 "http://www.w3.org/TR/2001/REC-SVG-20010904/DTD/svg10.dtd">
<svg version="1.0" xmlns="http://www.w3.org/2000/svg"
 width="150.000000pt" height="150.000000pt" viewBox="0 0 150.000000 150.000000"
 preserveAspectRatio="xMidYMid meet">
<metadata>
Created by potrace 1.16, written by Peter Selinger 2001-2019
</metadata>
<g transform="translate(0.000000,150.000000) scale(0.029821,-0.029821)"
fill="#FAD922" stroke="none">
<path d="M50 5013 c-8 -3 -23 -12 -32 -21 -17 -14 -18 -145 -18 -2483 l0
-2468 22 -21 22 -20 2370 2 2371 3 46 21 c63 30 123 86 151 142 l23 47 0 1090
0 1090 -30 54 c-60 109 -146 151 -310 151 l-105 0 0 34 c0 72 -40 139 -105
174 -42 23 -208 23 -250 0 -62 -34 -105 -104 -105 -173 l0 -35 -197 2 -198 3
-6 50 c-3 28 -11 62 -17 76 -14 34 -68 79 -103 86 l-29 5 -2 1074 -3 1073 -23
23 -23 23 -1717 2 c-944 1 -1724 -1 -1732 -4z m3340 -1173 c0 -817 -3 -1020
-13 -1020 -23 0 -87 -50 -103 -82 -9 -18 -19 -55 -23 -83 l-6 -50 -196 -3
-196 -2 -6 54 c-10 101 -68 158 -170 171 -165 21 -266 -41 -282 -171 l-7 -54
-82 0 c-49 0 -101 -6 -129 -16 -64 -22 -139 -91 -166 -153 l-21 -50 3 -1088
c2 -598 7 -1100 11 -1116 l8 -27 -933 2 -934 3 -3 2353 -2 2352 1625 0 1625 0
0 -1020z m-702 -1342 l-3 -173 -65 0 -65 0 -3 160 c-1 87 0 165 2 172 4 9 27
13 71 13 l65 0 -2 -172z m860 3 c2 -125 -1 -166 -10 -173 -20 -12 -113 -9
-126 4 -13 13 -18 319 -5 332 4 4 37 6 73 4 l65 -3 3 -164z m850 -3 l-3 -173
-65 0 -65 0 -3 173 -2 172 70 0 70 0 -2 -172z m-2008 -95 c1 -110 33 -179 100
-213 55 -28 204 -28 258 -1 72 37 102 95 102 196 l0 65 200 0 200 0 0 -70 c0
-80 15 -123 56 -162 42 -39 75 -48 169 -48 94 0 128 9 168 48 46 43 57 74 57
157 l0 75 200 0 200 0 0 -62 c2 -157 66 -218 230 -218 164 0 228 61 230 218
l0 62 90 0 c102 0 146 -14 178 -55 21 -26 22 -39 22 -191 l0 -164 -1355 0
-1355 0 0 156 c0 176 6 196 69 233 27 16 53 21 109 21 l72 0 0 -47z m2460
-1333 c0 -605 -3 -826 -12 -845 -6 -14 -28 -36 -47 -48 l-36 -22 -1255 0
c-1189 0 -1257 1 -1288 18 -18 10 -42 32 -52 50 -19 31 -20 56 -20 843 0 446
3 814 7 817 3 4 613 7 1355 7 l1348 0 0 -820z"/>
<path d="M503 4516 l-28 -24 0 -457 0 -457 24 -19 c22 -18 46 -19 506 -19 460
0 484 1 506 19 24 19 24 20 27 269 l3 250 75 70 c65 61 74 74 74 105 0 41 -36
77 -76 77 -26 0 -32 -5 -267 -219 l-158 -144 -73 72 c-64 61 -79 71 -110 71
-46 0 -76 -29 -76 -72 0 -28 16 -48 114 -146 110 -110 116 -114 148 -108 18 4
52 25 78 49 25 23 60 55 78 72 l32 29 0 -122 0 -122 -375 0 -375 0 0 345 0
345 424 0 425 0 27 23 c37 33 37 81 0 114 l-27 23 -474 0 -474 0 -28 -24z"/>
<path d="M2033 4530 c-49 -20 -59 -96 -16 -130 26 -20 31 -20 566 -18 l539 3
19 24 c29 35 24 75 -12 105 l-31 26 -521 -1 c-287 0 -532 -4 -544 -9z"/>
<path d="M2006 4088 c-25 -35 -20 -83 10 -107 26 -21 36 -21 561 -21 l534 0
24 25 c30 30 32 64 4 99 l-20 26 -549 0 -549 0 -15 -22z"/>
<path d="M520 2997 c-49 -25 -50 -33 -50 -489 0 -292 4 -435 11 -451 6 -14 22
-30 36 -36 34 -16 942 -15 977 0 14 7 30 25 36 42 6 17 10 124 10 257 l0 227
75 70 c63 59 75 76 75 102 0 18 -5 41 -10 51 -14 27 -74 36 -103 17 -13 -8
-105 -90 -206 -182 l-182 -167 -74 71 c-66 64 -77 71 -113 71 -47 0 -72 -26
-72 -74 0 -23 20 -49 106 -137 59 -59 117 -110 130 -113 28 -7 70 12 99 44 11
12 41 40 68 62 l47 40 0 -119 0 -118 -375 3 -375 2 0 340 0 340 424 0 425 0
27 23 c35 30 37 79 5 110 -21 22 -23 22 -494 25 -366 1 -478 -1 -497 -11z"/>
<path d="M513 1468 c-12 -6 -27 -24 -32 -41 -15 -41 -15 -853 0 -895 6 -17 22
-35 37 -41 20 -8 167 -11 499 -9 l472 3 23 23 c23 22 23 28 26 267 l3 245 56
52 c31 29 65 61 75 71 43 41 9 127 -50 127 -35 0 -60 -19 -268 -208 l-168
-153 -73 73 c-63 63 -77 72 -109 72 -44 0 -74 -31 -74 -77 0 -24 18 -48 98
-130 140 -144 162 -149 257 -59 28 26 60 56 73 66 l22 19 0 -116 0 -117 -375
0 -375 0 0 340 0 340 424 0 425 0 27 23 c20 17 27 33 27 57 0 24 -7 40 -27 57
l-27 23 -472 -1 c-311 0 -479 -4 -494 -11z"/>
<path d="M2495 1615 l-25 -24 0 -224 c0 -212 1 -226 21 -251 l20 -26 239 0
239 0 21 27 c20 26 21 35 18 256 -3 227 -3 229 -27 248 -21 17 -42 19 -253 19
l-229 0 -24 -25z m375 -250 l0 -125 -119 0 -120 0 -3 121 c-2 66 -1 123 1 125
2 2 58 4 123 4 l118 0 0 -125z"/>
<path d="M3252 1633 c-35 -14 -42 -58 -42 -276 0 -202 1 -216 21 -241 l20 -26
239 0 239 0 20 26 c20 25 21 39 21 251 l0 224 -25 24 -24 25 -228 -1 c-125 0
-234 -3 -241 -6z m366 -270 l3 -123 -126 0 -125 0 0 125 0 126 123 -3 122 -3
3 -122z"/>
<path d="M3995 1615 l-25 -24 0 -231 c0 -217 1 -231 20 -250 19 -19 33 -20
254 -20 215 0 236 2 257 19 24 19 24 22 27 244 l3 224 -26 32 -27 31 -229 0
-230 0 -24 -25z m375 -250 l0 -125 -125 0 -125 0 0 118 c0 65 3 122 7 125 3 4
60 7 125 7 l118 0 0 -125z"/>
<path d="M2491 924 c-20 -25 -21 -39 -21 -251 l0 -224 25 -24 24 -25 229 0
c211 0 232 2 253 19 24 19 24 21 27 250 l3 231 -25 25 -25 25 -235 0 -235 0
-20 -26z m379 -249 l0 -125 -118 0 c-65 0 -121 2 -123 4 -2 2 -3 59 -1 125 l3
121 120 0 119 0 0 -125z"/>
<path d="M3234 925 l-25 -25 3 -231 c3 -229 3 -231 27 -250 21 -17 42 -19 253
-19 l229 0 24 25 25 24 0 224 c0 212 -1 226 -21 251 l-20 26 -235 0 -235 0
-25 -25z m381 -250 l0 -120 -122 -3 -123 -3 0 126 0 126 123 -3 122 -3 0 -120z"/>
<path d="M3994 936 c-18 -13 -19 -30 -22 -250 l-3 -236 25 -25 25 -25 230 0
229 0 27 31 26 32 -3 224 c-3 222 -3 225 -27 244 -21 17 -42 19 -255 19 -185
0 -236 -3 -252 -14z m376 -261 l0 -125 -125 0 -125 0 0 125 0 125 125 0 125 0
0 -125z"/>
</g>
</svg>
