<?xml version="1.0" standalone="no"?>
<!DOCTYPE svg PUBLIC "-//W3C//DTD SVG 20010904//EN"
 "http://www.w3.org/TR/2001/REC-SVG-20010904/DTD/svg10.dtd">
<svg version="1.0" xmlns="http://www.w3.org/2000/svg"
 width="1818.000000pt" height="2048.000000pt" viewBox="0 0 1818.000000 2048.000000"
 preserveAspectRatio="xMidYMid meet">

<g transform="translate(0.000000,2048.000000) scale(0.100000,-0.100000)"
fill="#0033FF" stroke="none">
<path d="M6445 18059 c-22 -4 -125 -24 -230 -44 -1107 -209 -2203 -553 -3280
-1029 -82 -36 -159 -77 -171 -90 -54 -61 -444 -684 -642 -1027 -644 -1111
-1138 -2241 -1488 -3399 -549 -1816 -740 -3751 -569 -5746 8 -95 17 -178 20
-187 7 -17 283 -216 540 -390 567 -383 1102 -695 1725 -1005 631 -315 1159
-536 1835 -769 368 -127 474 -159 493 -146 34 21 319 434 499 723 214 342 456
793 451 837 -3 25 -13 32 -98 66 -52 21 -187 77 -300 125 -320 135 -991 475
-1057 535 -23 20 -29 52 -15 73 15 23 316 254 332 254 8 0 85 -31 171 -69
1178 -521 2369 -822 3679 -928 274 -22 1179 -25 1450 -5 1329 100 2560 410
3749 946 69 31 132 56 141 56 20 0 322 -235 334 -260 21 -45 2 -63 -161 -155
-332 -188 -680 -354 -1098 -525 -237 -96 -237 -97 -194 -182 179 -355 522
-921 802 -1323 105 -151 125 -175 146 -175 22 0 395 121 631 205 1204 428
2274 964 3330 1668 227 152 585 403 612 431 16 15 18 35 43 346 106 1356 43
2708 -186 3972 -371 2054 -1153 3968 -2380 5833 l-158 240 -168 74 c-1076 477
-2242 839 -3368 1045 -161 30 -193 33 -210 22 -36 -24 -264 -467 -409 -796
-38 -85 -71 -158 -75 -162 -3 -3 -82 5 -176 18 -1284 178 -2652 174 -3880 -10
-54 -8 -100 -14 -101 -13 -1 1 -36 78 -78 170 -148 325 -385 780 -416 797 -21
11 -19 11 -75 -1z m-217 -5779 c765 -83 1367 -724 1471 -1570 14 -108 14 -368
1 -485 -56 -491 -287 -940 -633 -1233 -197 -167 -425 -282 -667 -338 -133 -31
-363 -42 -503 -25 -578 73 -1083 490 -1321 1091 -86 219 -125 416 -133 671
-11 345 54 654 197 944 103 209 211 356 383 522 327 314 770 469 1205 423z
m6044 -1 c57 -6 153 -24 215 -39 651 -164 1152 -765 1248 -1496 17 -133 20
-411 4 -534 -88 -715 -523 -1295 -1130 -1508 -174 -61 -273 -77 -489 -77 -168
0 -210 3 -299 23 -807 181 -1368 964 -1338 1867 6 188 23 305 67 471 134 504
466 927 895 1139 277 137 536 185 827 154z"/>
</g>
</svg>
