<?xml version="1.0" standalone="no"?>
<!DOCTYPE svg PUBLIC "-//W3C//DTD SVG 20010904//EN"
 "http://www.w3.org/TR/2001/REC-SVG-20010904/DTD/svg10.dtd">
<svg version="1.0" xmlns="http://www.w3.org/2000/svg"
 width="640.000000pt" height="640.000000pt" viewBox="0 0 640.000000 640.000000"
 preserveAspectRatio="xMidYMid meet">

<g transform="translate(0.000000,480.000000) scale(0.100000,-0.100000)"
fill="#000000" stroke="none">
<path d="M2740 4594 c-73 -9 -278 -56 -355 -81 -407 -133 -783 -458 -974 -840
-114 -229 -180 -488 -181 -713 0 -41 -4 -80 -8 -86 -4 -6 -29 -14 -57 -18
-141 -19 -352 -101 -487 -188 -482 -311 -714 -861 -592 -1405 39 -172 95 -306
193 -453 51 -78 56 -84 151 -183 200 -209 441 -340 725 -393 96 -18 191 -19
2135 -19 1958 0 2039 1 2130 19 218 44 395 135 554 286 230 220 346 497 346
825 -1 201 -49 371 -164 570 -61 107 -196 245 -324 331 -48 32 -90 62 -93 67
-3 5 -6 56 -7 115 -3 289 -108 552 -302 756 -166 174 -339 271 -575 322 -110
24 -269 34 -330 20 -30 -7 -31 -6 -79 96 -26 57 -59 120 -72 141 -13 20 -36
56 -51 80 -88 136 -237 292 -413 430 -96 76 -311 187 -460 238 -168 57 -308
81 -500 84 -96 2 -191 1 -210 -1z m485 -428 c291 -75 513 -213 700 -436 109
-131 182 -260 245 -439 35 -97 71 -151 121 -177 37 -18 125 -18 180 1 68 24
235 22 339 -5 293 -75 509 -330 535 -631 7 -71 0 -128 -26 -250 -11 -50 -10
-62 6 -105 23 -61 73 -110 128 -125 95 -25 199 -90 287 -178 94 -95 142 -175
181 -301 47 -150 24 -352 -56 -511 -92 -180 -251 -311 -450 -370 l-80 -24
-2035 0 -2035 0 -98 27 c-99 27 -249 95 -308 140 -56 42 -185 172 -221 223
-111 159 -168 341 -168 540 0 393 225 726 587 871 81 33 246 64 336 64 128 0
198 34 237 116 20 41 21 53 15 196 -4 91 -2 194 4 255 57 537 460 994 988
1117 149 35 148 35 328 31 131 -3 178 -8 260 -29z"/>
</g>
</svg>
