<?xml version="1.0" encoding="UTF-8"?>
<svg id="Calque_2" data-name="Calque 2"
    xmlns="http://www.w3.org/2000/svg" viewBox="0 0 132.89 78.84">
    <defs>
        <style>
      .cls-1 {
        stroke-width: 0px;
      }
        </style>
    </defs>
    <g id="Calque_1-2" data-name="Calque 1">
        <path class="cls-1" d="M132.89,71.08c-.3.99-.51,2.01-.91,2.96-1.63,3.87-5.29,5.57-9.89,4.46-1.79-.43-3.59-1.06-5.19-1.94-10.96-6.01-22.73-9.55-34.99-11.58-6.71-1.11-13.5-1.18-20.29-.94-13.29.46-25.92,3.73-38.11,8.89-2.62,1.11-5.06,2.64-7.68,3.75-2.05.87-4.2,1.65-6.38,2-4.73.75-8.31-2.08-9.19-6.84-.67-3.58,0-7.05.61-10.54,2.39-13.6,4.76-27.2,7.21-40.78.57-3.17,1.08-6.44,2.27-9.4C14.13,1.71,23.82-2.33,33.34,1.35c3.26,1.26,6.44,2.73,9.61,4.2,6.12,2.84,12.55,4.23,19.27,4.6,6.95.38,13.87.15,20.52-1.96,4.71-1.5,9.22-3.65,13.78-5.59,2.8-1.18,5.59-2.22,8.67-2.48,7.13-.59,13.73,3.19,16.9,9.68,1.68,3.44,2.15,7.17,2.8,10.86,2.32,13.04,4.62,26.08,6.93,39.13.36,2.03.72,4.07,1.07,6.11v5.19ZM32.88,23.59c-1.69.02-2.96,1.13-3.63,2.76-.51,1.24-.67,2.65-.83,4.01-.16,1.36.42,3.31-.29,3.98-.79.74-2.67.26-4.06.45-1.39.18-2.84.33-4.13.85-1.58.64-2.69,1.9-2.7,3.78,0,1.88,1.12,3.06,2.67,3.81.91.44,1.95.68,2.96.8,1.2.14,2.42.06,3.63.06,1.89,0,1.81,0,1.92,1.92.11,2.05.15,4.16.68,6.12.49,1.82,1.87,3.13,3.99,3.13,2.11,0,3.27-1.36,4.04-3.12.27-.62.47-1.32.52-1.99.12-1.64.17-3.28.17-4.92,0-.83.28-1.17,1.13-1.15,1.6.02,3.2.05,4.8-.06,2.81-.19,5.19-2.29,5.26-4.51.07-2.11-2.06-4.18-4.84-4.64-.55-.09-1.12-.09-1.68-.1-1.04-.01-2.08-.07-3.11,0-1.15.08-1.62-.27-1.57-1.51.06-1.63,0-3.29-.19-4.91-.3-2.68-2.33-4.75-4.73-4.77ZM88.7,44.09c2.64,0,4.69-2.02,4.71-4.63.01-2.62-2.01-4.68-4.63-4.71-2.68-.03-4.83,2.07-4.81,4.7.02,2.6,2.1,4.64,4.74,4.64ZM115.73,39.41c0-2.63-2.03-4.65-4.68-4.65-2.62,0-4.7,2.02-4.74,4.63-.04,2.62,2.1,4.73,4.79,4.71,2.65-.02,4.64-2.03,4.63-4.69ZM99.83,23.59c-2.61.02-4.69,2.1-4.69,4.69,0,2.64,2.15,4.7,4.84,4.66,2.62-.04,4.61-2.11,4.58-4.75-.03-2.61-2.09-4.61-4.74-4.6ZM99.92,55.26c2.64-.02,4.65-2.05,4.64-4.68,0-2.67-2.09-4.69-4.81-4.65-2.6.04-4.69,2.19-4.62,4.75.08,2.63,2.14,4.6,4.78,4.58Z"/>
    </g>
</svg>