<?xml version="1.0" standalone="no"?>
<!DOCTYPE svg PUBLIC "-//W3C//DTD SVG 20010904//EN"
 "http://www.w3.org/TR/2001/REC-SVG-20010904/DTD/svg10.dtd">
<svg version="1.0" xmlns="http://www.w3.org/2000/svg"
 width="400.000000pt" height="400.000000pt" viewBox="0 0 400.000000 400.000000"
 preserveAspectRatio="xMidYMid meet">
<metadata>
Created by potrace 1.16, written by Peter Selinger 2001-2019
</metadata>
<g transform="translate(0.000000,400.000000) scale(0.059701,-0.069204)"
fill="#000000" stroke="none">
<path d="M3196 5749 c-148 -22 -312 -85 -437 -169 -86 -58 -228 -202 -284
-290 -63 -96 -111 -204 -142 -319 -23 -85 -26 -115 -26 -256 0 -141 3 -171 26
-256 52 -192 138 -342 275 -479 118 -117 231 -191 375 -245 l47 -18 0 -73 0
-73 -750 -3 -750 -3 -32 -33 -33 -32 -3 -595 -3 -595 -695 0 -696 0 -34 -34
c-26 -26 -34 -42 -34 -69 0 -42 37 -92 75 -101 l25 -6 0 -940 c0 -855 -1 -940
-16 -940 -9 0 -31 -15 -50 -34 -26 -26 -34 -42 -34 -71 0 -29 8 -45 34 -71
l34 -34 3271 0 c3562 0 3312 -4 3339 55 27 60 3 126 -53 146 l-35 13 0 938 c0
853 1 938 16 938 29 0 84 65 84 99 0 43 -23 85 -55 99 -19 9 -202 12 -715 12
l-690 0 0 585 c0 632 0 627 -53 657 -17 10 -185 14 -769 16 l-748 3 0 73 0 73
48 18 c240 90 453 279 566 502 290 570 17 1248 -589 1466 -140 50 -336 68
-489 46z m304 -213 c275 -49 527 -259 625 -520 117 -310 45 -655 -185 -886
-153 -155 -335 -235 -555 -247 -397 -20 -749 242 -851 632 -25 97 -25 303 0
400 50 189 164 360 320 474 98 73 255 138 371 154 66 9 204 6 275 -7z m-50
-1911 l0 -55 -105 0 -105 0 0 50 0 49 103 4 c56 1 103 4 105 5 1 1 2 -23 2
-53z m1570 -1835 l0 -1570 -155 0 -155 0 -2 1381 -3 1381 -33 29 -32 29 -1293
0 c-1398 0 -1319 3 -1347 -50 -7 -13 -10 -477 -10 -1395 l0 -1375 -160 0 -159
0 -1 1563 c0 860 3 1567 7 1570 3 4 757 7 1675 7 l1668 0 0 -1570z m-520 -265
l0 -1305 -160 0 -160 0 0 695 c0 472 -3 702 -10 715 -28 52 2 51 -824 51 -509
0 -773 -4 -786 -11 -52 -28 -50 -1 -50 -752 l0 -698 -155 0 -155 0 0 1305 0
1305 1150 0 1150 0 0 -1305z m-3560 -365 l0 -940 -315 0 -315 0 0 154 0 155
181 3 181 3 29 33 c32 36 37 77 15 120 -24 46 -48 52 -231 55 l-170 2 0 155 0
155 183 5 184 5 24 28 c50 58 21 146 -54 167 -20 5 -106 10 -189 10 l-153 0 0
155 0 155 170 0 c184 0 212 6 236 51 22 44 17 85 -15 121 l-29 33 -181 3 -181
3 0 155 0 154 315 0 315 0 0 -940z m520 785 l0 -155 -155 0 -155 0 0 155 0
155 155 0 155 0 0 -155z m4080 0 l0 -155 -155 0 -155 0 0 155 0 155 155 0 155
0 0 -155z m840 0 l0 -155 -167 0 c-150 0 -171 -2 -201 -20 -61 -37 -69 -105
-18 -156 l34 -34 176 0 176 0 0 -155 0 -155 -147 0 c-82 0 -166 -5 -188 -10
-86 -20 -113 -116 -48 -176 25 -24 30 -24 204 -24 l179 0 0 -160 0 -160 -176
0 -176 0 -34 -34 c-38 -38 -43 -70 -18 -117 25 -50 63 -59 244 -59 l160 0 0
-155 0 -155 -315 0 -315 0 0 940 0 940 315 0 315 0 0 -155z m-4920 -520 l0
-155 -155 0 -155 0 0 155 0 155 155 0 155 0 0 -155z m4080 0 l0 -155 -155 0
-155 0 0 155 0 155 155 0 155 0 0 -155z m-2300 -580 l0 -625 -260 0 -260 0 0
625 0 625 260 0 260 0 0 -625z m730 0 l0 -625 -260 0 -260 0 0 625 0 625 260
0 260 0 0 -625z m-2510 55 l0 -160 -155 0 -155 0 0 160 0 160 155 0 155 0 0
-160z m4080 0 l0 -160 -155 0 -155 0 0 160 0 160 155 0 155 0 0 -160z m-4080
-525 l0 -155 -155 0 -155 0 0 155 0 155 155 0 155 0 0 -155z m4080 0 l0 -155
-155 0 -155 0 0 155 0 155 155 0 155 0 0 -155z"/>
<path d="M3277 5230 c-124 -32 -221 -139 -242 -269 l-7 -44 -56 6 c-40 4 -65
2 -90 -10 -60 -28 -62 -41 -62 -355 0 -265 1 -285 20 -316 11 -18 32 -37 46
-42 15 -6 206 -10 471 -10 l445 0 34 34 34 34 0 299 c0 260 -2 302 -16 322
-25 35 -72 51 -136 44 l-55 -5 -6 45 c-14 101 -75 187 -165 235 -66 36 -150
48 -215 32z m146 -240 c15 -17 27 -39 27 -50 0 -19 -7 -20 -99 -20 -55 0 -103
4 -106 10 -10 15 23 68 53 85 40 22 91 12 125 -25z m237 -435 l0 -155 -315 0
-315 0 0 155 0 155 315 0 315 0 0 -155z"/>
<path d="M2582 2409 c-20 -6 -40 -22 -52 -42 -18 -29 -20 -51 -20 -219 l0
-188 29 -32 29 -33 777 0 777 0 29 33 29 32 0 194 c0 180 -1 195 -20 219 -12
15 -38 31 -58 37 -48 13 -1473 12 -1520 -1z m1388 -254 l0 -55 -625 0 -625 0
0 55 0 55 625 0 625 0 0 -55z"/>
</g>
</svg>
