<?xml version="1.0" standalone="no"?>
<!DOCTYPE svg PUBLIC "-//W3C//DTD SVG 20010904//EN"
 "http://www.w3.org/TR/2001/REC-SVG-20010904/DTD/svg10.dtd">
<svg version="1.0" xmlns="http://www.w3.org/2000/svg"
 width="400.000000pt" height="400.000000pt" viewBox="0 0 400.000000 400.000000"
 preserveAspectRatio="xMidYMid meet">
<metadata>
Created by potrace 1.16, written by Peter Selinger 2001-2019
</metadata>
<g transform="translate(0.000000,400.000000) scale(0.068143,-0.063694)"
fill="#000000" stroke="none">
<path d="M4426 6239 c-15 -12 -31 -31 -35 -43 -5 -11 -30 -792 -57 -1734 l-49
-1712 -153 -85 c-84 -47 -157 -85 -162 -85 -6 0 -10 171 -10 451 l0 451 -30
30 c-58 57 -31 69 -966 -449 -467 -260 -858 -475 -867 -479 -16 -6 -17 25 -17
446 l0 452 -29 29 c-61 60 -14 82 -1058 -497 -521 -290 -958 -536 -970 -547
l-23 -20 0 -1202 0 -1202 23 -21 23 -22 2873 0 2872 0 24 24 c13 13 26 39 30
57 3 19 4 791 3 1717 l-3 1684 -33 29 c-53 47 -83 41 -249 -51 -79 -44 -148
-80 -153 -80 -6 0 -10 19 -10 43 0 91 -70 2578 -76 2676 -6 98 -8 107 -34 133
l-28 28 -405 0 c-397 0 -405 0 -431 -21z m694 -294 l0 -105 -264 0 c-166 0
-267 4 -271 10 -3 6 -3 53 1 105 l7 95 263 0 264 0 0 -105z m10 -347 c1 -24
16 -558 34 -1188 19 -630 30 -1149 26 -1153 -20 -22 -685 -384 -689 -375 -4
13 68 2660 75 2716 l5 42 275 0 274 0 0 -42z m-3237 -3261 c19 -29 54 -47 90
-47 12 0 414 218 892 484 l870 483 5 -446 c4 -336 8 -452 18 -468 15 -27 62
-53 94 -53 13 0 417 218 897 485 481 267 876 485 878 485 2 0 3 -688 3 -1530
l0 -1530 -890 0 -889 0 -3 336 -3 336 -33 29 -32 29 -866 0 c-618 0 -872 -3
-887 -11 -57 -29 -57 -26 -57 -386 l0 -333 -890 0 -890 0 0 1068 0 1067 833
462 832 462 5 -448 c5 -409 7 -449 23 -474z m917 -1877 l0 -260 -310 0 -310 0
0 260 0 260 310 0 310 0 0 -260z m840 0 l0 -260 -315 0 -315 0 0 260 0 260
315 0 315 0 0 -260z"/>
<path d="M562 2064 c-48 -33 -52 -58 -52 -294 0 -253 6 -281 64 -305 51 -22
870 -22 921 -1 62 26 66 47 63 317 l-3 241 -33 29 -32 29 -453 0 c-394 0 -455
-2 -475 -16z m788 -299 l0 -105 -315 0 -315 0 0 105 0 105 315 0 315 0 0 -105z"/>
<path d="M2448 2064 c-15 -8 -32 -23 -38 -34 -6 -11 -10 -116 -10 -264 l0
-246 29 -32 29 -33 434 -3 c463 -3 492 -1 527 45 20 24 21 39 21 270 l0 245
-34 34 -34 34 -449 0 c-376 -1 -452 -3 -475 -16z m782 -299 l0 -105 -312 2
-313 3 -3 103 -3 102 316 0 315 0 0 -105z"/>
<path d="M4331 2066 c-47 -26 -50 -45 -51 -302 0 -229 1 -243 21 -267 35 -46
64 -48 527 -45 l434 3 29 33 29 32 0 248 c0 267 -2 273 -57 301 -34 17 -900
15 -932 -3z m779 -301 l0 -105 -310 0 -310 0 0 105 0 105 310 0 310 0 0 -105z"/>
</g>
</svg>
