<?xml version="1.0" standalone="no"?>
<!DOCTYPE svg PUBLIC "-//W3C//DTD SVG 20010904//EN"
 "http://www.w3.org/TR/2001/REC-SVG-20010904/DTD/svg10.dtd">
<svg version="1.0" xmlns="http://www.w3.org/2000/svg"
 width="400.000000pt" height="400.000000pt" viewBox="0 0 400.000000 400.000000"
 preserveAspectRatio="xMidYMid meet">
<metadata>
Created by potrace 1.16, written by Peter Selinger 2001-2019
</metadata>
<g transform="translate(0.000000,400.000000) scale(0.079365,-0.084746)"
fill="#000000" stroke="none">
<path d="M2417 4648 c-251 -267 -414 -586 -493 -963 -25 -117 -27 -152 -28
-345 -1 -118 3 -251 7 -295 l8 -80 -187 -224 c-102 -123 -196 -245 -207 -270
-19 -41 -21 -65 -22 -214 0 -165 0 -169 24 -188 13 -10 33 -19 45 -19 12 0
138 66 281 146 143 81 265 148 271 151 6 2 25 -19 42 -47 l32 -51 -35 -140
c-21 -84 -33 -149 -29 -164 13 -52 35 -55 383 -55 217 0 328 4 345 11 49 23
51 52 12 207 l-36 141 32 51 c17 28 36 49 42 47 6 -3 128 -70 270 -151 143
-80 270 -146 282 -146 12 0 32 9 45 19 24 19 24 22 23 188 0 148 -3 173 -21
214 -12 25 -105 147 -208 270 l-186 224 6 45 c14 106 17 409 6 510 -49 426
-229 820 -513 1123 -55 57 -69 67 -98 67 -29 0 -43 -9 -93 -62z m164 -201 c36
-45 84 -109 106 -142 42 -62 123 -207 123 -218 0 -4 -135 -7 -300 -7 -165 0
-300 3 -300 7 0 11 81 156 123 218 44 66 169 225 177 225 3 0 35 -37 71 -83z
m320 -598 c116 -363 112 -762 -11 -1132 -35 -103 -133 -319 -162 -354 -15 -18
-421 -18 -436 0 -32 38 -128 250 -166 367 -63 191 -89 354 -89 560 -1 91 5
203 11 250 15 98 66 313 88 365 l14 35 362 -2 362 -3 27 -86z m-932 -1114 c6
-25 29 -91 51 -148 22 -56 36 -103 32 -105 -4 -1 -97 -54 -207 -117 l-200
-114 -3 64 c-2 36 3 76 10 94 13 30 287 369 299 370 4 1 12 -19 18 -44z m1246
-126 c77 -93 146 -183 153 -200 7 -18 12 -58 10 -94 l-3 -63 -205 115 c-113
64 -206 116 -207 117 -1 1 17 53 41 116 24 63 47 130 50 148 4 17 11 32 14 31
4 0 70 -76 147 -170z m-511 -466 c9 -38 19 -76 22 -85 5 -17 -10 -18 -216 -18
-206 0 -221 1 -216 18 3 9 13 47 22 85 l16 67 178 0 178 0 16 -67z"/>
<path d="M2433 3681 c-48 -12 -117 -56 -153 -98 -54 -61 -75 -118 -75 -203 0
-88 22 -145 80 -208 117 -130 333 -130 450 0 58 63 80 120 80 208 0 123 -62
222 -171 276 -58 28 -153 40 -211 25z m158 -164 c106 -71 106 -203 0 -274 -98
-66 -241 15 -241 137 0 55 27 102 79 137 23 16 49 23 81 23 32 0 58 -7 81 -23z"/>
<path d="M593 3433 c-60 -21 -137 -94 -170 -161 l-28 -57 -3 -1372 -2 -1373
-171 0 c-167 0 -170 0 -194 -25 -23 -23 -25 -31 -25 -131 0 -59 5 -124 12
-145 15 -52 68 -113 121 -138 l43 -21 2334 0 2334 0 43 21 c56 27 108 89 122
144 6 24 11 89 11 145 0 94 -2 103 -25 125 -24 25 -27 25 -194 25 l-171 0 -2
1373 -3 1372 -28 57 c-16 33 -49 76 -78 102 -86 77 -75 76 -660 76 l-518 0
-20 -26 c-26 -34 -26 -54 -1 -87 l21 -26 512 -3 512 -3 37 -23 c21 -13 45 -40
57 -66 21 -42 21 -47 21 -1394 l0 -1352 -125 0 -125 0 0 86 c0 313 -228 569
-544 613 -44 6 -94 9 -113 6 -18 -3 -48 -7 -66 -10 -32 -5 -36 -2 -71 50 -43
65 -133 135 -214 165 -72 27 -180 36 -254 21 -32 -7 -61 -12 -65 -12 -4 0 -13
20 -19 44 -38 149 -163 262 -318 287 -189 31 -382 -98 -430 -287 -6 -24 -15
-44 -19 -44 -4 0 -33 5 -65 12 -74 15 -182 6 -254 -21 -73 -27 -167 -96 -204
-149 -16 -23 -33 -48 -39 -56 -8 -12 -22 -13 -78 -5 -216 31 -456 -80 -582
-270 -72 -109 -97 -185 -103 -317 l-5 -113 -123 0 -124 0 0 1353 c0 1296 1
1354 19 1393 12 25 33 50 57 65 l39 24 512 3 512 3 21 26 c25 33 25 53 -1 87
l-20 26 -522 -1 c-436 0 -529 -3 -564 -16z m2023 -1881 c52 -27 88 -67 115
-126 18 -42 20 -59 14 -131 -5 -69 -4 -85 10 -98 32 -33 61 -31 122 7 73 45
111 56 194 56 53 0 77 -6 127 -30 71 -36 110 -78 152 -160 17 -34 38 -61 50
-65 12 -4 62 1 111 11 77 15 102 16 166 6 179 -28 325 -148 382 -313 23 -68
34 -157 26 -203 l-7 -36 -1343 0 -1342 0 -27 -21 c-36 -28 -36 -80 0 -108 l27
-21 1738 0 1739 0 0 -54 c0 -44 -5 -61 -24 -83 l-24 -28 -2310 0 -2310 0 -26
24 c-22 21 -26 33 -26 83 l0 58 485 0 486 0 24 25 c14 13 25 36 25 50 0 14
-11 37 -25 50 -22 23 -32 25 -114 25 l-89 0 -7 31 c-9 41 3 141 26 208 52 151
185 270 339 305 86 20 122 20 217 0 102 -21 118 -15 149 50 37 78 86 130 156
165 103 52 219 41 330 -30 51 -33 82 -34 113 -2 14 14 16 29 10 93 -8 94 5
145 53 200 74 87 191 112 288 62z"/>
</g>
</svg>
