<?xml version="1.0" encoding="UTF-8"?>
<svg id="Calque_2" data-name="Calque 2" xmlns="http://www.w3.org/2000/svg" viewBox="0 0 1853 290.24">
  <defs>
    <style>
      .cls-1 {
        fill: #000;
      }

      .cls-1, .cls-2, .cls-3 {
        stroke-width: 0px;
      }

      .cls-2 {
        fill: #6da619;
      }

      .cls-3 {
        fill: #fad922;
      }
    </style>
  </defs>
  <g id="Calque_1-2" data-name="Calque 1">
    <g id="texte">
      <path class="cls-3" d="M121.8,79.8h-55.05c-4.27,0-7.86,1.43-10.75,4.29-2.88,2.86-4.34,6.4-4.34,10.63v183.44c0,2.23-.75,4.16-2.26,5.78-1.51,1.61-3.39,2.42-5.67,2.42H8.31c-2.27,0-4.21-.81-5.86-2.42-1.63-1.62-2.45-3.54-2.45-5.78V94.71c0-9.2,1.76-17.78,5.29-25.73,3.52-7.95,8.3-14.92,14.32-20.88,6.04-5.97,13.07-10.68,21.12-14.17,8.05-3.47,16.71-5.22,26.01-5.22h55.05c5.79,0,9.55-.42,11.31-1.3,1.76-.87,2.65-1.43,2.65-1.68.5-.49,1.2-1.92,2.08-4.29.88-2.36,1.32-6.52,1.32-12.49v-4.47c0-1.25.75-2.29,2.26-3.17,1.51-.87,3.39-1.3,5.67-1.3h46.76c2.26,0,4.21.44,5.84,1.3,1.64.88,2.45,1.93,2.45,3.17v4.47c0,5.97.39,10.13,1.13,12.49.76,2.37,1.39,3.8,1.89,4.29.26.25,1.2.81,2.84,1.68,1.64.88,5.34,1.3,11.11,1.3h55.43c9.06,0,17.6,1.74,25.64,5.22,8.05,3.5,15.09,8.21,21.12,14.17,6.04,5.96,10.8,12.92,14.32,20.88,3.52,7.96,5.29,16.53,5.29,25.73v183.44c0,2.23-.76,4.16-2.26,5.78-1.52,1.61-3.41,2.42-5.67,2.42h-35.44c-2.26,0-4.21-.81-5.84-2.42-1.63-1.62-2.45-3.54-2.45-5.78V94.71c0-4.22-1.38-7.77-4.15-10.63-2.78-2.86-6.28-4.29-10.57-4.29h-55.43c-15.83,0-28.77-3.85-38.83-11.56-2.02-1.49-3.84-2.99-5.47-4.48-1.64-1.49-3.08-3.1-4.34-4.84-2.5,3.23-5.65,6.33-9.42,9.31-10.29,7.71-23.37,11.57-39.2,11.57h0Z"/>
      <path class="cls-3" d="M700.08,47.86v61.86h-74.52v176.9h-84.29V109.72h-74.88v-61.86h233.7Z"/>
      <path class="cls-3" d="M790.53,173.75c0-5.54-1.27-9.88-3.8-13.02-2.53-3.13-6.46-4.7-11.76-4.7s-9.29,1.45-12.66,4.34c-3.38,2.9-5.31,8.68-5.79,17.37l-70.18-10.13c1.68-20.02,10.37-35.93,26.05-47.75,15.67-11.81,38.47-17.73,68.37-17.73,20.98,0,38.28,2.89,51.91,8.68,13.62,5.79,23.75,13.87,30.39,24.24,6.63,10.37,9.95,22.43,9.95,36.18v56.07c0,9.89,4.7,14.83,14.11,14.83,2.65,0,4.7-.36,6.15-1.08l-3.62,42.69c-8.93,4.34-19.66,6.51-32.2,6.51-11.34,0-21.41-1.63-30.21-4.88-8.81-3.25-15.68-8.19-20.62-14.83-4.95-6.63-7.42-15.13-7.42-25.51v-3.62h7.96c-.24,9.17-3.2,17.43-8.86,24.78-5.67,7.36-13.2,13.2-22.61,17.55-9.41,4.34-20.14,6.51-32.2,6.51-12.79,0-23.58-1.93-32.38-5.79-8.81-3.85-15.5-9.41-20.08-16.64-4.58-7.24-6.87-15.79-6.87-25.69,0-13.26,4.22-24.06,12.66-32.38,8.44-8.32,20.62-14.04,36.54-17.18l62.95-13.02-.36,29.3-19.54,4.7c-5.06,1.21-8.68,3.2-10.85,5.97-2.17,2.77-3.26,6.21-3.26,10.31,0,3.86,1.2,7,3.62,9.41,2.41,2.41,5.79,3.62,10.13,3.62,1.93,0,3.8-.36,5.61-1.09,1.81-.72,3.37-1.81,4.7-3.25,1.32-1.45,2.35-3.19,3.07-5.25.72-2.05,1.09-4.4,1.09-7.05v-52.46Z"/>
      <path class="cls-3" d="M988.41,33.39v181.24c0,7.24,1.09,12.54,3.26,15.92,2.17,3.38,6.03,5.06,11.58,5.06,2.65,0,5-.18,7.05-.54,2.05-.36,4.04-.78,5.97-1.26l-3.62,44.86c-4.58,3.38-11.16,6.15-19.72,8.32-8.56,2.17-16.95,3.26-25.14,3.26-22.43,0-38.47-4.82-48.11-14.47-9.65-9.64-14.47-25.8-14.47-48.48V33.39h83.2Z"/>
      <path class="cls-3" d="M1122.62,102.12c20.26,0,37.92,3.68,53,11.03,15.07,7.36,26.83,18.03,35.27,32.02,8.44,13.99,12.66,30.99,12.66,51.01s-4.22,36.72-12.66,50.83c-8.44,14.11-20.2,24.84-35.27,32.2-15.07,7.36-32.74,11.03-53,11.03s-37.62-3.67-52.82-11.03c-15.19-7.35-27.01-18.09-35.45-32.2-8.45-14.11-12.66-31.05-12.66-50.83s4.22-37.02,12.66-51.01c8.44-13.98,20.26-24.66,35.45-32.02,15.19-7.35,32.8-11.03,52.82-11.03ZM1122.62,158.2c-3.62,0-6.75,1.03-9.41,3.07-2.66,2.05-4.65,5.85-5.97,11.4-1.33,5.55-1.99,13.39-1.99,23.51s.66,17.91,1.99,23.33c1.32,5.43,3.31,9.22,5.97,11.39,2.65,2.17,5.79,3.26,9.41,3.26,3.86,0,7.05-1.08,9.59-3.26,2.53-2.17,4.46-5.97,5.79-11.39,1.32-5.43,1.99-13.2,1.99-23.33s-.67-17.96-1.99-23.51c-1.33-5.55-3.26-9.34-5.79-11.4-2.53-2.05-5.73-3.07-9.59-3.07Z"/>
      <path class="cls-2" d="M1303.93,287.49c-9.92,0-18.8-1.36-26.63-4.09-7.84-2.73-14.48-6.68-19.94-11.85-5.46-5.17-9.65-11.45-12.57-18.84-2.93-7.39-4.39-15.74-4.39-25.07,0-6.48.69-12.42,2.08-17.82,1.39-5.4,3.35-10.03,5.88-13.9,2.53-3.86,5.58-6.88,9.15-9.04,3.57-2.16,7.49-3.24,11.75-3.24,3.87,0,6.87.8,9,2.39,2.13,1.59,3.84,3.55,5.13,5.88,1.29,2.33,2.38,4.86,3.27,7.59s1.98,5.26,3.27,7.59c1.29,2.33,3,4.29,5.13,5.88,2.13,1.59,5.13,2.39,9,2.39s6.79-.99,8.48-2.98c1.69-1.99,2.53-5.2,2.53-9.64,0-5.46-1.07-10.06-3.2-13.81-2.13-3.75-4.94-7.05-8.41-9.89-3.47-2.84-7.44-5.46-11.9-7.84-4.46-2.39-9-4.89-13.62-7.5-4.61-2.61-9.15-5.57-13.61-8.87-4.46-3.3-8.43-7.33-11.9-12.11-3.47-4.77-6.27-10.48-8.41-17.14-2.13-6.65-3.2-14.58-3.2-23.79,0-11.25,1.66-21.45,4.98-30.61,3.32-9.15,8.08-16.91,14.28-23.28,6.2-6.36,13.69-11.28,22.47-14.75,8.78-3.47,18.57-5.2,29.39-5.2s20.68,1.65,29.91,4.94c9.23,3.3,17.19,7.91,23.88,13.81,6.7,5.91,11.95,12.88,15.77,20.89,3.82,8.02,5.73,16.74,5.73,26.18,0,20.01-9.03,30.01-27.08,30.01-6.35,0-11.51-1.11-15.47-3.33-3.97-2.22-5.95-5.14-5.95-8.78,0-1.93.39-3.64,1.19-5.12.79-1.47,1.19-3.12,1.19-4.94s-.52-3.58-1.56-5.29c-1.04-1.7-2.43-3.24-4.17-4.6-1.74-1.36-3.7-2.44-5.88-3.24-2.18-.8-4.41-1.2-6.69-1.2s-4.64.48-6.77,1.45c-2.13.97-3.99,2.28-5.58,3.92-1.59,1.65-2.83,3.58-3.72,5.8-.89,2.22-1.34,4.58-1.34,7.08,0,4.21,1.21,7.76,3.65,10.66,2.43,2.9,5.65,5.46,9.67,7.67,4.02,2.22,8.58,4.32,13.69,6.31,5.11,1.99,10.34,4.24,15.7,6.74s10.59,5.43,15.7,8.78c5.11,3.36,9.67,7.5,13.69,12.45,4.02,4.94,7.24,10.89,9.67,17.82,2.43,6.93,3.64,15.24,3.64,24.9,0,12.62-2.16,24.21-6.47,34.79-4.32,10.57-10.34,19.7-18.08,27.37-7.74,7.67-16.91,13.67-27.53,17.99-10.62,4.32-22.22,6.48-34.82,6.48Z"/>
      <path class="cls-2" d="M1487.72,286.62c-14.84,0-27.63-1.63-38.37-4.89-10.74-3.25-19.58-8.32-26.52-15.21-6.94-6.88-12.07-15.63-15.39-26.26-3.33-10.62-4.99-23.31-4.99-38.05,0-15.96,2.19-30.12,6.57-42.5,4.38-12.37,10.38-22.78,17.99-31.2,7.61-8.43,16.53-14.84,26.74-19.24,10.21-4.4,21.15-6.6,32.81-6.6s22.67,2.24,33.03,6.72c10.36,4.48,19.39,10.99,27.1,19.54,7.71,8.55,13.82,19.08,18.36,31.57,4.53,12.5,6.79,26.81,6.79,42.93,0,14.57-1.62,27.09-4.84,37.55-3.23,10.46-8.26,19.07-15.1,25.83-6.84,6.76-15.56,11.75-26.16,14.96-10.6,3.22-23.27,4.82-38.01,4.82ZM1488.15,231.91c6.55,0,11.78-3.36,15.68-10.08,3.9-6.72,5.85-16.83,5.85-30.35s-1.83-22.98-5.49-30.11c-3.66-7.12-9.11-10.69-16.33-10.69-3.56,0-6.79.94-9.68,2.81-2.89,1.87-5.33,4.54-7.3,8-1.98,3.46-3.49,7.65-4.55,12.58-1.06,4.93-1.59,10.44-1.59,16.55,0,6.6.58,12.46,1.73,17.59,1.16,5.13,2.79,9.45,4.91,12.95,2.12,3.5,4.6,6.17,7.44,8,2.84,1.83,5.95,2.75,9.32,2.75Z"/>
      <path class="cls-2" d="M1720.62,286.77c-3.76,0-6.79-.36-9.11-1.08-2.31-.72-4.26-1.64-5.85-2.76-1.59-1.12-3.06-2.32-4.41-3.59-1.35-1.28-2.92-2.47-4.7-3.59-1.78-1.12-4-2.04-6.65-2.76-2.65-.72-6.14-1.08-10.48-1.08-6.36,0-11.9.78-16.62,2.34-4.72,1.56-9.06,3.25-13.01,5.09-3.95,1.84-7.73,3.53-11.34,5.09-3.61,1.56-7.54,2.34-11.78,2.34-5.68,0-10.62-1.28-14.81-3.83-4.19-2.56-7.78-5.89-10.77-10-2.99-4.11-5.42-8.74-7.3-13.9-1.88-5.15-3.37-10.32-4.48-15.51-1.11-5.19-1.88-10.16-2.31-14.92-.43-4.75-.65-8.76-.65-12.04,0-6.95.38-13.82,1.16-20.6.77-6.79,1.16-13.62,1.16-20.48,0-3.99-.41-7.97-1.23-11.92-.82-3.95-1.69-7.87-2.6-11.74-.92-3.87-1.78-7.77-2.6-11.68-.82-3.91-1.23-7.83-1.23-11.74,0-7.19,2.29-12.66,6.87-16.41,4.58-3.75,11.2-5.63,19.87-5.63,5.78,0,10.81.78,15.1,2.34,4.29,1.56,7.97,3.65,11.06,6.29,3.08,2.64,5.64,5.71,7.66,9.23,2.02,3.51,3.61,7.21,4.77,11.08,1.16,3.87,1.97,7.87,2.46,11.98.48,4.11.72,8.05.72,11.8,0,4.55-.2,9.1-.58,13.66-.39,4.55-.58,9.1-.58,13.66,0,1.2.07,2.86.21,4.97.15,2.12.43,4.43.87,6.95.43,2.51,1.04,5.07,1.81,7.67.77,2.6,1.73,4.95,2.89,7.07,1.16,2.12,2.55,3.83,4.19,5.15,1.64,1.32,3.56,1.98,5.78,1.98,2.51,0,4.65-.86,6.43-2.58,1.78-1.72,3.3-3.91,4.55-6.59,1.25-2.67,2.26-5.63,3.03-8.86.77-3.24,1.35-6.41,1.73-9.52.39-3.11.65-5.95.8-8.5.15-2.56.22-4.47.22-5.75,0-4.79-.48-9.36-1.45-13.72-.96-4.35-2-8.57-3.11-12.64-1.11-4.08-2.12-8.07-3.03-11.98-.92-3.91-1.37-7.87-1.37-11.86,0-3.59.72-6.75,2.17-9.46,1.45-2.71,3.42-4.99,5.93-6.83,2.51-1.84,5.51-3.21,9.03-4.13,3.52-.92,7.3-1.38,11.35-1.38,5.78,0,10.84.82,15.17,2.46,4.34,1.64,8.07,3.85,11.2,6.65,3.13,2.8,5.71,6.03,7.73,9.7,2.02,3.67,3.63,7.53,4.84,11.56,1.2,4.03,2.05,8.15,2.53,12.34.48,4.19.72,8.21.72,12.04,0,6.79-.36,13.56-1.08,20.3-.72,6.75-1.08,13.52-1.08,20.31,0,7.51.58,14.91,1.73,22.22,1.16,7.31,2.7,14.6,4.62,21.86.77,2.8,1.47,5.59,2.09,8.39.63,2.8.94,5.63.94,8.51,0,7.51-2.6,13.4-7.8,17.67-5.2,4.27-12.34,6.41-21.39,6.41Z"/>
      <path class="cls-2" d="M1813.54,286.41c-6.94,0-13.13-1.66-18.57-4.99-5.44-3.33-10.04-8.15-13.8-14.46-3.76-6.31-6.62-14.02-8.6-23.11-1.98-9.1-2.96-19.46-2.96-31.09,0-5.27.17-10.68.51-16.25.34-5.57.72-11.18,1.16-16.85.43-5.66.82-11.36,1.16-17.07.34-5.71.51-11.36.51-16.92,0-15.6-1.59-30.86-4.77-45.78-1.35-6.66-2.77-12.87-4.26-18.64-1.49-5.76-2.24-11.18-2.24-16.25,0-4.77.8-9.12,2.38-13.05,1.59-3.93,3.83-7.31,6.72-10.14,2.89-2.83,6.33-5.02,10.33-6.56,4-1.54,8.4-2.31,13.22-2.31,28.13,0,42.2,28.63,42.2,85.89,0,5.87-.12,11.96-.36,18.27-.24,6.31-.51,12.65-.8,19.01-.29,6.36-.56,12.55-.8,18.56-.24,6.02-.36,11.66-.36,16.92v8.5c0,3.08.09,5.96.29,8.65.19,2.68.6,4.92,1.23,6.71.63,1.79,1.52,2.69,2.67,2.69,1.35,0,2.87.77,4.55,2.31,1.68,1.54,3.28,3.75,4.77,6.64,1.49,2.88,2.74,6.46,3.76,10.74,1.01,4.27,1.52,9.09,1.52,14.46,0,4.57-1.06,8.92-3.18,13.05-2.12,4.13-4.99,7.75-8.6,10.88-3.61,3.13-7.8,5.62-12.57,7.46-4.77,1.84-9.81,2.76-15.1,2.76Z"/>
      <path class="cls-1" d="M180.61,167.95c.06-2.05-.02-4.11.21-6.14,1.28-11.31,9.45-22.34,21.85-25.29,11.25-2.67,23.27,2.03,29.33,11.56,2.79,4.38,4.04,9.19,3.84,14.38-.02.42-.03.83-.04,1.25-.03.12-.06.23-.08.35-.96,7.96-4.88,14.07-11.55,18.45-2.4,1.58-5.05,2.56-7.93,2.8-4.07.34-7.78-.74-11.21-2.87-3.05-1.89-5.5-4.46-7.83-7.14-1.91-2.19-3.44-4.59-4.03-7.49,0-1.18-.12-2.37.04-3.53.38-2.71,1.75-4.97,3.59-6.93,1.58-1.68,3.26-3.28,4.97-4.83.83-.75,1.78-1.4,2.76-1.95,2.97-1.66,5.99-1.68,9.01-.07,1.74.93,3.19,2.22,4.53,3.64,2.5,2.65,4,5.67,3.35,9.44-.41.99-.73,2.03-1.24,2.96-.95,1.72-2.35,3.09-3.88,4.31-1.21.97-2.62,1.15-4.09.71-1.39-.41-2.29-1.38-2.9-2.65-.03-.12-.06-.23-.09-.35-.49-1.84-.05-3.41,1.33-4.72.19-.18.37-.36.55-.54.36-.37.72-.74,1.09-1.11.28-.28.31-.57.03-.86-.81-.82-1.6-1.68-2.47-2.45-.68-.6-.84-.59-1.51.04-1.65,1.56-3.27,3.16-4.88,4.76-.32.31-.55.72-.8,1.09-.62.93-.51,1.83.17,2.68.03.08.05.17.1.24,2.04,2.77,4.32,5.32,7.26,7.17,3.04,1.91,6.12,1.83,9.15-.02,2.69-1.65,4.71-3.92,6.06-6.78.82-1.74,1.33-3.58,1.42-5.51.32-4.03-.78-7.65-3.25-10.83-4.73-6.08-13.12-8.46-20.55-5.81-5.56,1.98-9.25,5.96-11.56,11.28-1.32,3.03-1.85,6.22-1.64,9.52.04.52.05,1.04.12,1.56.76,5.77,3.44,10.47,7.9,14.18,3.61,3.01,7.74,4.87,12.4,5.55.14.03.27.07.41.09,2.24.26,4.48.35,6.7-.04,1.68-.3,3.34-.79,5-1.19,3.74-1.28,6.96-3.37,9.7-6.2,5.08-5.24,7.84-11.51,8.32-18.79.01-.19,0-.38,0-.57,0-.04,0-.07,0-.11,0-.07,0-.14,0-.2.01-.1.03-.21.03-.31.07-7.97-2.62-14.87-8.03-20.71-.58-.63-1.06-1.36-1.59-2.05-.23-.82-.4-1.65-.22-2.52.36-1.75,1.37-2.96,3.06-3.51,1.71-.56,3.3-.21,4.58,1.06,5.75,5.75,9.34,12.64,10.75,20.66.55,3.13.64,6.29.47,9.46-.02.09-.04.17-.05.26-.61,7.19-2.97,13.75-7.3,19.52-7.47,9.95-17.4,14.94-29.92,14.46-6.56-.25-12.54-2.36-17.9-6.15-6.83-4.83-11.29-11.27-12.98-19.53-.25-1.22-.37-2.47-.56-3.71Z"/>
      <path class="cls-1" d="M109.07,190.16c.86,1.33,1.07,2.76.6,4.28-.03.06-.07.12-.1.18-1.47,3.11-5.16,3.75-7.57,1.3-4.57-4.64-7.78-10.07-9.6-16.33-.74-2.53-1.15-5.12-1.41-7.73-.32-5.1.16-10.13,1.83-14.97,3.51-10.16,9.89-17.87,19.82-22.29,14.2-6.32,31.18-2.11,40.59,9.98,4.77,6.13,6.83,13.13,6.44,20.87,0,.12,0,.24-.01.36-.02.09-.04.17-.05.26-.49,5.64-2.36,10.77-5.66,15.37-7.2,10.06-19.63,14.31-31.19,10.53-7.63-2.49-13.24-7.35-16.45-14.8-.94-2.17-1.44-4.46-1.76-6.79-.05-.69-.12-1.37-.15-2.06-.02-.38.03-.76.04-1.15.16-5.51,1.88-10.47,5.29-14.82,2.29-2.93,5.1-5.25,8.45-6.91.19-.08.39-.15.58-.23,2.32-1.03,4.74-1.59,7.27-1.49,1.36.05,2.7.37,4.05.57,2.64.77,5.03,2.01,7.18,3.72,2.68,2.13,5.05,4.57,7.1,7.31.63.84,1.17,1.77,1.66,2.71,1.12,2.16,1.48,4.47,1.14,6.88-.03.08-.07.16-.09.24-.45,2.1-1.41,3.97-2.78,5.59-1.1,1.31-2.32,2.54-3.52,3.76-1.43,1.45-2.93,2.82-4.71,3.85-3.19,1.83-6.45,1.94-9.59,0-3.57-2.21-6.43-5.07-7.57-9.3-.27-1.79-.17-3.54.55-5.22,1.04-2.4,2.73-4.29,4.82-5.78,2.68-1.91,6.5-.2,6.95,3.06.11.78-.12,1.61-.2,2.41-.41.88-1.05,1.58-1.78,2.21-.35.31-.64.68-.98,1-.43.4-.41.78-.02,1.2.34.36.68.74,1.01,1.11.34.32.67.65,1.03.94,1,.81,1.11.85,2.04-.02,1.64-1.54,3.23-3.13,4.84-4.71.19-.19.33-.44.49-.66.56-.68.68-1.45.35-2.24-.21-.51-.48-1.02-.81-1.45-.72-.91-1.48-1.8-2.27-2.65-1.51-1.61-3.07-3.18-5.03-4.26-2.92-1.61-5.8-1.57-8.67.13-1.51.9-2.82,2.04-3.94,3.38-2.76,3.32-4.02,7.13-3.67,11.45.12,2.21.76,4.27,1.8,6.21,3.51,6.51,11.56,10.2,19.1,8.78,5.43-1.03,9.56-3.98,12.57-8.55,2.16-3.28,3.35-6.89,3.5-10.82,0-.14,0-.27,0-.41,0-.07,0-.13,0-.2.01-.17.04-.35.03-.52-.04-4.6-1.35-8.81-4.04-12.55-7.39-10.27-22.17-13.19-33.13-6.49-6.37,3.89-10.36,9.61-12.39,16.73-.83,2.89-1.18,5.86-1.02,8.87.08,3.44.82,6.75,2.09,9.94,1.56,3.92,3.94,7.29,6.93,10.25Z"/>
      <path class="cls-1" d="M155.04,190.69c.12-.27.24-.55.36-.82.18.41-.02.65-.36.82Z"/>
      <path class="cls-1" d="M155.52,189.63c.08-.2.16-.39.24-.59.19.31.05.48-.24.59Z"/>
      <path class="cls-1" d="M155.88,188.69c.04-.08.08-.16.12-.24-.04.08-.08.16-.12.24Z"/>
      <path class="cls-1" d="M154.81,191.16c.04-.08.08-.16.12-.24-.04.08-.08.16-.12.24Z"/>
      <path class="cls-1" d="M249.39,169.57s0,.08,0,.12c0-.03-.02-.06-.02-.08,0-.01.02-.02.03-.04Z"/>
      <path class="cls-2" d="M238.9,246.98c.23,1.17.35,2.33.02,3.5-.43.79-.74,1.68-1.3,2.35-2.06,2.46-5.64,2.81-8.27.85-5.88-4.37-11.73-8.77-17.6-13.16-2.46-1.84-4.95-1.84-7.43.01-3.47,2.59-6.94,5.18-10.4,7.78-6.56,4.91-15.2,4.9-21.77-.01-3.48-2.61-6.97-5.21-10.46-7.82-2.37-1.77-4.92-1.77-7.27,0-3.57,2.67-7.13,5.36-10.72,8.01-6.37,4.71-15,4.69-21.35-.03-5.55-4.13-11.07-8.29-16.62-12.41-1.47-1.09-2.9-2.18-3.52-4-.01-.03-.07-.05-.1-.07-.09-.49-.27-.98-.24-1.47.04-.76.22-1.52.34-2.27.03-.06.07-.11.1-.17,1.77-4.08,6.1-5.26,9.65-2.61,5.84,4.35,11.66,8.72,17.5,13.07,2.32,1.73,4.86,1.73,7.16.01,3.51-2.61,7-5.24,10.51-7.85,6.66-4.97,15.22-4.96,21.87.02,3.48,2.61,6.97,5.21,10.45,7.82,2.29,1.71,4.89,1.72,7.17.01,3.45-2.58,6.9-5.16,10.35-7.74,6.81-5.1,15.31-5.11,22.13-.01,5.61,4.19,11.2,8.4,16.83,12.57,1.32.97,2.41,2.07,2.97,3.63Z"/>
    </g>
  </g>
</svg>