<?xml version="1.0" encoding="UTF-8"?>
<svg id="Calque_2" data-name="Calque 2" xmlns="http://www.w3.org/2000/svg" xmlns:xlink="http://www.w3.org/1999/xlink" viewBox="0 0 78 78">
  <defs>
    <style>
      .cls-1 {
        fill: url(#Dégradé_sans_nom_9);
      }

      .cls-1, .cls-2 {
        stroke-width: 0px;
      }

      .cls-2 {
        fill: #fdfdfe;
      }
    </style>
    <linearGradient id="Dégradé_sans_nom_9" data-name="Dégradé sans nom 9" x1=".19" y1="61.4" x2="77.81" y2="16.6" gradientUnits="userSpaceOnUse">
      <stop offset="0" stop-color="#03f"/>
      <stop offset="1" stop-color="#05054d"/>
    </linearGradient>
  </defs>
  <g id="Calque_4" data-name="Calque 4">
    <g>
      <rect class="cls-1" width="78" height="78" rx="23.14" ry="23.14"/>
      <path class="cls-2" d="M44.45,21.15c.52-.5,1.06-.98,1.55-1.51.64-.68,1.39-1.03,2.33-.91,1.17.43,1.81,1.24,1.82,2.51,0,2.43.02,4.87-.05,7.3-.02.66-.34,1.31-.52,1.96-1.87,1.86-3.74,3.72-5.61,5.59-1.15,1.14-2.29,2.28-3.46,3.44.23.24.39.42.57.6,2.35,2.35,4.63,4.78,7.08,7.03,1.47,1.35,2.27,2.79,1.97,4.79-.06.36,0,.75.02,1.12,0,1.55-.06,3.09-.02,4.64.03,1.14-.38,1.98-1.36,2.54-1.17.38-2.05-.04-2.88-.88-5.93-5.97-11.88-11.92-17.85-17.85-.95-.94-1.28-1.92-.71-3.16,1.46-1.5,2.93-2.99,4.39-4.49,1.65-1.65,3.3-3.3,4.95-4.95,1.44-1.44,2.88-2.88,4.32-4.32,1.15-1.15,2.3-2.3,3.45-3.45Z"/>
    </g>
  </g>
</svg>