<?xml version="1.0" encoding="UTF-8"?>
<svg id="Calque_2" data-name="Calque 2" xmlns="http://www.w3.org/2000/svg" viewBox="0 0 50 50">
  <defs>
    <style>
      .cls-1 {
        fill: #fff;
      }

      .cls-1, .cls-2 {
        stroke-width: 0px;
      }

      .cls-2 {
        fill: #4259a1;
      }
    </style>
  </defs>
  <g id="Calque_4" data-name="Calque 4">
    <g>
      <circle class="cls-1" cx="25" cy="25" r="25"/>
      <g>
        <path class="cls-2" d="M24.01,15.3h-1.76c-.14,0-.25.05-.34.14-.09.09-.14.21-.14.34v5.93c0,.07-.02.13-.07.19-.05.05-.11.08-.18.08h-1.13c-.07,0-.13-.03-.19-.08-.05-.05-.08-.11-.08-.19v-5.93c0-.3.06-.57.17-.83.11-.26.27-.48.46-.67.19-.19.42-.35.67-.46.26-.11.53-.17.83-.17h1.76c.18,0,.31-.01.36-.04.06-.03.08-.05.08-.05.02-.02.04-.06.07-.14.03-.08.04-.21.04-.4v-.14s.02-.07.07-.1c.05-.03.11-.04.18-.04h1.49c.07,0,.13.01.19.04.05.03.08.06.08.1v.14c0,.19.01.33.04.4.02.08.04.12.06.14,0,0,.04.03.09.05.05.03.17.04.36.04h1.77c.29,0,.56.06.82.17.26.11.48.27.67.46.19.19.35.42.46.67.11.26.17.53.17.83v5.93c0,.07-.02.13-.07.19-.05.05-.11.08-.18.08h-1.13c-.07,0-.13-.03-.19-.08s-.08-.11-.08-.19v-5.93c0-.14-.04-.25-.13-.34-.09-.09-.2-.14-.34-.14h-1.77c-.51,0-.92-.12-1.24-.37-.06-.05-.12-.1-.17-.14-.05-.05-.1-.1-.14-.16-.08.1-.18.2-.3.3-.33.25-.75.37-1.25.37"/>
        <path class="cls-2" d="M24.58,18.25c.07,0,.14.03.19.08.05.05.08.12.08.19v1.24c0,.07-.03.13-.08.18-.05.05-.12.07-.19.07h-1.13c-.07,0-.14-.02-.19-.07-.05-.05-.08-.11-.08-.18v-1.24c0-.07.03-.14.08-.19.05-.05.12-.08.19-.08h1.13Z"/>
        <path class="cls-2" d="M27.67,18.25c.07,0,.14.03.19.08.05.05.08.12.08.19v3.22c0,.07-.03.13-.08.18-.05.05-.12.07-.19.07h-1.13c-.07,0-.14-.02-.19-.07-.05-.05-.08-.11-.08-.18v-3.22c0-.07.03-.14.08-.19.05-.05.12-.08.19-.08h1.13Z"/>
        <path class="cls-2" d="M7.9,27.87c0-.07.02-.12.07-.17.05-.04.11-.06.17-.06h5.61c.06,0,.12.02.17.06.05.04.08.1.08.17v1.29c0,.06-.02.12-.07.18-.04.06-.11.09-.18.09h-1.8v7.22c0,.06-.02.12-.07.17-.05.05-.1.08-.18.08h-1.53c-.06,0-.11-.02-.17-.07s-.08-.11-.08-.17v-7.22h-1.79c-.07,0-.13-.02-.17-.07-.05-.04-.07-.11-.07-.2v-1.29h0Z"/>
        <path class="cls-2" d="M20.96,36.52c0,.06-.01.12-.03.17-.02.05-.06.1-.1.13-.04.04-.08.06-.14.07-.05.01-.1.02-.14.02h-1.03c-.07,0-.13,0-.18-.03-.05-.02-.08-.05-.11-.08-.03-.03-.05-.08-.07-.13-.02-.05-.04-.11-.06-.16l-.07-.23c-.09.09-.2.19-.32.28-.12.09-.25.17-.4.24-.14.07-.3.13-.46.17-.17.04-.34.07-.51.07-.32,0-.62-.04-.91-.12-.29-.08-.56-.19-.81-.34-.25-.15-.48-.32-.69-.53-.21-.21-.38-.44-.53-.69-.15-.25-.26-.53-.34-.82-.08-.29-.12-.6-.12-.92,0-.48.09-.93.27-1.35.18-.42.42-.78.72-1.08.31-.31.67-.55,1.08-.72.41-.18.86-.26,1.33-.26.22,0,.42.02.6.07.19.05.36.11.51.2.15.08.29.18.42.3.12.12.23.24.33.38l.15-.47c.03-.09.06-.16.09-.21.02-.05.05-.09.07-.12.03-.03.06-.04.1-.05.04,0,.09-.01.16-.01h.78s.08,0,.14.02c.05.01.1.03.14.07.05.04.08.08.1.13.02.05.03.1.03.17v5.87h0ZM15.83,33.6c0,.23.04.44.11.64.07.2.17.37.3.52.13.15.29.26.48.35.19.09.39.13.62.13s.45-.04.65-.13c.2-.09.37-.2.52-.35.15-.15.26-.32.35-.52.08-.2.13-.41.13-.64s-.04-.43-.13-.64c-.08-.2-.2-.38-.35-.53-.15-.15-.32-.27-.52-.36-.2-.09-.42-.13-.65-.13s-.43.04-.62.13c-.19.09-.34.21-.48.36-.13.15-.23.33-.3.53-.07.2-.11.41-.11.64"/>
        <path class="cls-2" d="M22.74,28.01c0-.11.03-.21.08-.28.06-.08.15-.11.29-.11h1.28s.07,0,.11.03c.04.02.07.05.11.08.03.03.06.08.08.13.02.05.03.1.03.16v8.49c0,.13-.04.23-.11.3-.07.07-.17.1-.29.1h-1.21c-.14,0-.23-.03-.29-.1-.06-.07-.08-.17-.08-.3v-8.49h0Z"/>
        <path class="cls-2" d="M26.29,33.6c0-.32.04-.63.12-.92.08-.3.2-.57.34-.82.15-.25.32-.48.53-.69.21-.21.44-.38.69-.53.25-.15.53-.26.82-.34.29-.08.6-.12.92-.12.47,0,.92.09,1.33.26.42.18.78.42,1.08.72.31.31.55.67.73,1.08.18.42.27.86.27,1.35,0,.32-.04.63-.12.92-.08.29-.2.57-.34.82-.15.25-.32.48-.53.69-.21.21-.44.38-.69.53-.25.15-.53.26-.82.34-.29.08-.59.12-.91.12s-.63-.04-.92-.12c-.29-.08-.57-.19-.82-.34-.25-.15-.48-.32-.69-.53-.21-.21-.38-.44-.53-.69-.15-.25-.26-.53-.34-.82-.08-.29-.12-.6-.12-.92M28.19,33.6c0,.23.04.44.11.64.07.2.17.37.3.52.13.15.29.26.47.35s.4.13.63.13.43-.04.61-.13c.18-.09.34-.2.46-.35.13-.15.22-.32.29-.52.07-.2.1-.41.1-.64s-.03-.43-.1-.64c-.07-.2-.17-.38-.29-.53-.13-.15-.28-.27-.46-.36-.18-.09-.39-.13-.61-.13s-.44.04-.63.13c-.19.09-.34.21-.47.36-.13.15-.23.33-.3.53-.07.2-.11.41-.11.64"/>
        <path class="cls-2" d="M35.68,34.84c.09.09.2.17.3.24.11.06.21.12.32.16.1.04.19.07.27.09.08.02.13.03.16.03.07,0,.15,0,.25,0,.1,0,.2-.02.29-.05.09-.03.17-.07.24-.13.07-.06.1-.14.1-.25,0-.1-.02-.17-.06-.23-.04-.06-.09-.11-.17-.15-.07-.04-.16-.08-.27-.11-.11-.03-.22-.07-.36-.11-.42-.11-.76-.24-1.03-.4-.27-.16-.49-.33-.64-.52-.16-.19-.27-.4-.33-.62-.06-.22-.09-.46-.09-.7,0-.29.06-.55.17-.79.11-.24.28-.44.49-.61.21-.17.47-.3.76-.39.3-.09.62-.14.99-.14.22,0,.42.02.62.05.19.04.37.09.55.17s.34.18.51.3c.16.12.33.27.49.44.06.07.09.13.09.2,0,.06-.04.13-.12.2-.14.11-.27.22-.39.33-.12.11-.25.23-.38.36-.04.03-.08.06-.12.07-.04,0-.08,0-.12,0-.04-.01-.07-.03-.11-.05-.03-.02-.07-.05-.09-.09-.12-.14-.26-.23-.42-.27-.16-.05-.3-.07-.44-.07-.17,0-.31.03-.41.09-.1.06-.15.15-.14.27,0,.09.04.16.1.21.06.05.14.09.22.12.09.03.18.06.28.08.1.02.19.04.27.07.31.1.6.21.86.33.26.12.49.26.68.44.19.17.34.38.45.62.11.24.16.53.16.88s-.07.65-.21.92c-.14.27-.33.5-.57.68-.24.18-.52.33-.85.42-.33.1-.68.15-1.06.15-.22,0-.43-.02-.66-.06-.22-.04-.44-.1-.65-.18-.21-.09-.41-.19-.59-.33-.19-.13-.35-.3-.5-.49-.04-.05-.07-.1-.09-.15-.02-.05-.03-.11-.03-.16,0-.05.01-.1.03-.14.02-.04.05-.08.09-.11l.67-.67c.08-.07.16-.09.22-.07.06.02.15.08.25.18"/>
        <path class="cls-2" d="M41.24,28.05c0-.15.03-.25.09-.31.06-.06.16-.09.29-.09h1.21c.12,0,.22.03.29.09.07.06.11.16.11.31v1.02s0,.09-.03.14c-.02.05-.05.1-.08.14-.03.05-.08.08-.13.11-.05.03-.11.04-.17.04h-1.21c-.26,0-.39-.14-.39-.43v-1.02h0ZM41.24,30.69c0-.11.03-.21.09-.29.06-.08.16-.12.29-.12h1.19s.09,0,.14.03c.05.02.09.05.14.08.04.04.08.08.11.13.03.05.04.1.04.17v5.81c0,.13-.04.23-.11.3-.07.07-.18.1-.31.1h-1.19c-.26,0-.39-.13-.39-.4v-5.81h0Z"/>
      </g>
    </g>
  </g>
</svg>