<?xml version="1.0" standalone="no"?>
<!DOCTYPE svg PUBLIC "-//W3C//DTD SVG 20010904//EN"
 "http://www.w3.org/TR/2001/REC-SVG-20010904/DTD/svg10.dtd">
<svg version="1.0" xmlns="http://www.w3.org/2000/svg"
 width="700.000000pt" height="700.000000pt" viewBox="0 0 700.000000 700.000000"
 preserveAspectRatio="xMidYMid meet">
<metadata>
Created by potrace 1.14, written by Peter Selinger 2001-2017
</metadata>
<g transform="translate(0.000000,700.000000) scale(0.100000,-0.100000)"
fill="#000000" stroke="none">
<path d="M3092 5555 c-18 -8 -34 -20 -36 -27 -3 -7 -7 -63 -10 -124 -6 -136
-28 -200 -77 -228 -32 -19 -59 -20 -524 -22 -269 -1 -521 -5 -558 -8 -85 -8
-210 -47 -307 -96 -259 -130 -449 -377 -516 -670 -5 -19 -10 -677 -11 -1462
l-3 -1428 34 -37 34 -38 291 -3 c313 -3 334 0 363 51 10 17 14 308 18 1412 l5
1390 23 38 c29 45 78 84 122 97 18 5 240 10 494 11 253 0 486 5 516 10 30 5
70 11 88 14 47 7 147 42 206 72 77 39 130 78 195 143 l58 59 61 -59 c97 -94
224 -169 342 -200 129 -34 190 -38 675 -39 466 -1 470 -2 514 -24 45 -23 97
-85 107 -127 3 -14 7 -642 8 -1395 1 -1290 2 -1372 19 -1398 36 -56 51 -58
367 -55 288 3 288 3 314 27 14 13 29 35 34 50 10 31 8 2774 -2 2846 -27 183
-127 384 -260 523 -136 143 -339 251 -531 283 -45 7 -251 12 -570 13 -592 2
-577 0 -605 106 -11 40 -19 135 -20 233 0 31 -5 40 -32 57 -30 18 -53 19 -412
19 -309 0 -387 -2 -414 -14z"/>
<path d="M2514 3078 c-34 -9 -70 -43 -82 -77 -13 -42 -8 -622 6 -648 7 -13 27
-31 45 -40 28 -15 67 -18 314 -19 305 -1 327 2 359 52 17 24 18 56 19 337 0
432 27 401 -361 402 -150 0 -285 -3 -300 -7z"/>
<path d="M3880 3068 c-69 -34 -65 17 -67 -817 -2 -821 -4 -790 54 -828 23 -15
59 -17 312 -18 310 -1 324 2 364 56 18 25 19 53 19 776 0 822 2 790 -59 830
-23 15 -58 17 -307 18 -247 0 -284 -2 -316 -17z"/>
</g>
</svg>
