<?xml version="1.0" encoding="utf-8"?>
<!-- Generator: Adobe Illustrator 26.0.3, SVG Export Plug-In . SVG Version: 6.00 Build 0)  -->
<svg version="1.0" id="Calque_1" xmlns="http://www.w3.org/2000/svg" xmlns:xlink="http://www.w3.org/1999/xlink" x="0px" y="0px"
	 viewBox="0 0 553 501.5" style="enable-background:new 0 0 553 501.5;" xml:space="preserve">
<style type="text/css">
	.st0{fill:#0033FF;}
	.st1{fill:#FAD922;}
	.st2{fill:green}
</style>
<path class="st0" d="M0.1,8.5v402.3c0,9.6,3.1,17.6,9.3,24.1c6.2,6.5,14.1,9.7,23.7,9.7h124.1c35.4,0,64.4,8.7,86.9,26.2
	c4.5,3.4,8.6,6.8,12.2,10.1c3.7,3.4,6.9,7,9.7,11c5.6-7.3,12.7-14.3,21.1-21.1c23.1-17.4,52.3-26.2,87.8-26.2h123.2
	c9.6,0,17.6-3.2,24.1-9.7c6.4-6.5,9.7-14.5,9.7-24.1V8.5H0.1z"/>
<path class="st1" d="M26,3.2l-8.2,402.2c-0.2,9.6,2.7,17.6,8.8,24.2c6.1,6.6,13.9,10,23.4,10.2l124.1,2.5
	c35.4,0.7,64.2,10,86.4,27.9c4.4,3.5,8.5,6.9,12,10.4c3.6,3.5,6.8,7.2,9.5,11.1c5.8-7.2,12.9-14.1,21.5-20.7
	c23.4-17,52.9-25.1,88.3-24.4l123.2,2.5c9.6,0.2,17.7-2.9,24.3-9.2c6.6-6.3,10-14.3,10.2-23.9L557.6,14L26,3.2z"/>
<path class="st2" d="M8.9-6.5v402.3c0,9.6,3.1,17.6,9.3,24.1c6.2,6.5,14.1,9.7,23.7,9.7h124.1c35.4,0,64.4,8.7,86.9,26.2
	c4.5,3.4,8.6,6.8,12.2,10.1c3.7,3.4,6.9,7,9.7,11c5.6-7.3,12.7-14.3,21.1-21.1c23.1-17.4,52.3-26.2,87.8-26.2h123.2
	c9.6,0,17.6-3.2,24.1-9.7c6.4-6.5,9.7-14.5,9.7-24.1V-6.5H8.9z"/>
</svg>