<?xml version="1.0" encoding="utf-8"?>
<!-- Generator: Adobe Illustrator 26.0.3, SVG Export Plug-In . SVG Version: 6.00 Build 0)  -->
<svg version="1.0" id="Calque_1" xmlns="http://www.w3.org/2000/svg" xmlns:xlink="http://www.w3.org/1999/xlink" x="0px" y="0px"
	 viewBox="0 0 553 501.5" style="enable-background:new 0 0 553 501.5;" xml:space="preserve">
<style type="text/css">
	.st0{fill:linear-gradient(#05054D, #0033FF);}
</style>
<path class="st0" d="M9.9,8.5v402.3c0,9.6,3.1,17.6,9.3,24.1c6.2,6.5,14.1,9.7,23.7,9.7h124.1c35.4,0,64.4,8.7,86.9,26.2
	c4.5,3.4,8.6,6.8,12.2,10.1c3.7,3.4,6.9,7,9.7,11c5.6-7.3,12.7-14.3,21.1-21.1c23.1-17.4,52.3-26.2,87.8-26.2h123.2
	c9.6,0,17.6-3.2,24.1-9.7c6.4-6.5,9.7-14.5,9.7-24.1V8.5H9.9z"/>
</svg>