<?xml version="1.0" encoding="utf-8"?>
<!-- Generator: Adobe Illustrator 26.0.3, SVG Export Plug-In . SVG Version: 6.00 Build 0)  -->
<svg version="1.0" id="Calque_1" xmlns="http://www.w3.org/2000/svg" xmlns:xlink="http://www.w3.org/1999/xlink" x="0px" y="0px"
	 viewBox="0 0 82 69.9" style="enable-background:new 0 0 82 69.9;" xml:space="preserve">
<style type="text/css">
	.st0{fill:#FFFFFF;}
</style>
<path class="st0" d="M79.6,69.8h-8.4c-0.7,0-1.3-0.2-1.7-0.7c-0.5-0.5-0.7-1.1-0.7-1.7V23.3c0-0.9-0.3-1.6-0.8-2.2
	c-0.6-0.6-1.3-0.9-2.1-0.9H52.6c-3.9,0-7.1-1-9.5-2.9c-0.5-0.4-0.9-0.7-1.3-1.1c-0.2-0.2-0.5-0.5-0.7-0.7c-0.5,0.6-1.2,1.2-1.9,1.8
	c-2.5,1.9-5.8,2.9-9.6,2.9H16.4c-0.9,0-1.6,0.3-2.2,0.9c-0.6,0.6-0.9,1.3-0.9,2.2v44.1c0,0.7-0.2,1.2-0.7,1.7
	c-0.5,0.5-1,0.7-1.7,0.7H2.5c-0.7,0-1.3-0.2-1.7-0.7C0.2,68.6,0,68,0,67.3V23.3c0-2.3,0.4-4.4,1.3-6.4c0.9-2,2-3.7,3.5-5.2
	C6.3,10.2,8,9.1,10,8.2c2-0.9,4.1-1.3,6.4-1.3h13.1c1.7,0,2.3-0.2,2.5-0.3c0.2-0.1,0.3-0.2,0.4-0.2l0.1-0.1c0,0,0.1-0.2,0.4-0.8
	c0.1-0.3,0.3-1.1,0.3-2.8V1.6c0-0.3,0.1-0.8,0.8-1.2c0.4-0.3,1-0.4,1.6-0.4h11.1c0.6,0,1.2,0.1,1.6,0.4C48.9,0.7,49,1.2,49,1.6v1.1
	C49,4,49.1,5,49.3,5.5c0.2,0.7,0.3,0.8,0.3,0.8c0,0,0.1,0,0.5,0.3c0.2,0.1,0.7,0.3,2.4,0.3h13.2c2.2,0,4.3,0.4,6.3,1.3
	c2,0.9,3.7,2,5.2,3.5c1.5,1.5,2.6,3.2,3.5,5.2c0.9,2,1.3,4.1,1.3,6.4v44.1c0,0.7-0.2,1.2-0.7,1.7C80.9,69.6,80.3,69.8,79.6,69.8z
	 M41,13.8l0.4,0.5c0.3,0.4,0.6,0.8,1,1.1c0.4,0.3,0.8,0.7,1.3,1c2.3,1.8,5.3,2.7,8.9,2.7h13.2c1.2,0,2.1,0.4,2.9,1.2
	c0.7,0.8,1.1,1.8,1.1,2.9v44.1c0,0.4,0.1,0.7,0.4,1c0.3,0.3,0.6,0.4,1,0.4h8.4c0.4,0,0.7-0.1,1-0.4c0.3-0.3,0.4-0.6,0.4-1V23.3
	c0-2.1-0.4-4.1-1.2-6c-0.8-1.8-1.9-3.5-3.3-4.9c-1.4-1.4-3-2.5-4.9-3.3c-1.8-0.8-3.8-1.2-5.9-1.2H52.6c-2,0-2.6-0.2-2.9-0.4
	C49.1,7.2,49,7.1,48.9,7c-0.1-0.1-0.3-0.4-0.6-1.2C48.1,5.2,48,4.2,48,2.7V1.6c0-0.1-0.2-0.3-0.3-0.3C47.4,1.1,47,1,46.6,1H35.4
	c-0.4,0-0.8,0.1-1.1,0.2c-0.2,0.1-0.3,0.2-0.3,0.3v1.1c0,1.5-0.1,2.5-0.3,3.2c-0.2,0.7-0.4,1-0.5,1.1c-0.1,0.2-0.4,0.4-0.8,0.6
	c-0.5,0.2-1.4,0.4-2.9,0.4H16.4c-2.1,0-4.1,0.4-6,1.2C8.5,9.9,6.9,11,5.5,12.4c-1.4,1.4-2.5,3-3.3,4.9c-0.8,1.8-1.2,3.9-1.2,6v44.1
	c0,0.4,0.1,0.7,0.4,1c0.3,0.3,0.6,0.4,1,0.4h8.4c0.4,0,0.7-0.1,1-0.4c0.3-0.3,0.4-0.6,0.4-1V23.3c0-1.1,0.4-2.1,1.2-2.9
	c0.8-0.8,1.8-1.2,2.9-1.2h13.1c3.6,0,6.7-0.9,9-2.7c0.9-0.7,1.6-1.4,2.1-2.1L41,13.8z"/>
<path class="st0" d="M33.7,55.2h-8.4c-0.7,0-1.3-0.2-1.7-0.7c-0.5-0.5-0.7-1-0.7-1.7v-9.2c0-0.7,0.2-1.3,0.7-1.8
	c0.5-0.5,1.1-0.7,1.8-0.7h8.4c0.7,0,1.3,0.2,1.8,0.7c0.5,0.5,0.7,1.1,0.7,1.8v9.2c0,0.7-0.3,1.3-0.7,1.7
	C34.9,55,34.3,55.2,33.7,55.2z M25.3,42.1c-0.4,0-0.8,0.1-1,0.4c-0.3,0.3-0.4,0.6-0.4,1v9.2c0,0.4,0.1,0.7,0.4,1
	c0.3,0.3,0.6,0.4,1.1,0.4h8.4c0.4,0,0.8-0.1,1.1-0.4c0.3-0.3,0.4-0.6,0.4-1v-9.2c0-0.4-0.1-0.8-0.4-1.1c-0.3-0.3-0.6-0.4-1-0.4H25.3
	z"/>
<path class="st0" d="M56.6,69.9h-8.4c-0.7,0-1.3-0.2-1.7-0.7c-0.5-0.5-0.7-1-0.7-1.7V43.6c0-0.7,0.2-1.3,0.7-1.8
	c0.5-0.5,1.1-0.7,1.8-0.7h8.4c0.7,0,1.3,0.2,1.8,0.7c0.5,0.5,0.7,1.1,0.7,1.8v23.9c0,0.7-0.3,1.3-0.7,1.7
	C57.9,69.7,57.3,69.9,56.6,69.9z M48.2,42.1c-0.4,0-0.8,0.1-1,0.4c-0.3,0.3-0.4,0.6-0.4,1v23.9c0,0.4,0.1,0.7,0.4,1
	c0.3,0.3,0.6,0.4,1.1,0.4h8.4c0.4,0,0.8-0.1,1.1-0.4c0.3-0.3,0.4-0.6,0.4-1V43.6c0-0.4-0.1-0.8-0.4-1.1c-0.3-0.3-0.6-0.4-1-0.4H48.2
	z"/>
</svg>