<svg version="1.1" id="Calque_1" xmlns="http://www.w3.org/2000/svg" x="0" y="0" viewBox="0 0 1200 1200" style="enable-background:new 0 0 1200 1200" xml:space="preserve"><style>.st0{fill:#fff}</style><path class="st0" d="M481.19 444.91H346.13c-10.47 0-19.26 3.55-26.37 10.62-7.07 7.1-10.62 15.9-10.62 26.37v455.06c0 5.54-1.86 10.32-5.55 14.33-3.7 4.02-8.33 6.01-13.87 6.01h-86.94c-5.55 0-10.31-1.99-14.34-6.01-4.01-4.01-6.02-8.79-6.02-14.33V481.9c0-22.8 4.34-44.07 12.96-63.82 8.65-19.73 20.35-37 35.15-51.79 14.79-14.8 32.06-26.5 51.79-35.15 19.75-8.63 41.02-12.96 63.82-12.96h135.05c14.19 0 23.43-1.05 27.74-3.23 4.33-2.16 6.48-3.54 6.48-4.16 1.24-1.23 2.93-4.77 5.08-10.64 2.17-5.84 3.24-16.19 3.24-30.98v-11.1c0-3.08 1.85-5.7 5.55-7.86 3.7-2.16 8.31-3.24 13.86-3.24h114.7c5.54 0 10.32 1.08 14.33 3.24 4.02 2.16 6.02 4.78 6.02 7.86v11.1c0 14.79.92 25.14 2.78 30.98 1.85 5.87 3.4 9.42 4.61 10.64.62.62 2.94 2 6.95 4.16 4.02 2.18 13.11 3.23 27.27 3.23h135.97c22.21 0 43.16 4.33 62.9 12.96 19.73 8.65 37 20.35 51.79 35.15 14.8 14.79 26.5 32.06 35.15 51.79 8.63 19.75 12.96 41.02 12.96 63.82v455.06c0 5.54-1.86 10.32-5.55 14.33-3.71 4.02-8.33 6.01-13.87 6.01h-86.94c-5.55 0-10.31-1.99-14.33-6.01-4.01-4.01-6.03-8.79-6.03-14.33V481.9c0-10.47-3.38-19.26-10.17-26.37-6.78-7.07-15.41-10.62-25.9-10.62H719.81c-38.84 0-70.59-9.55-95.27-28.67-4.92-3.71-9.4-7.41-13.42-11.11-4-3.7-7.54-7.7-10.63-12.02-6.15 8.01-13.86 15.71-23.12 23.12-25.27 19.13-57.35 28.68-96.18 28.68"/><path style="fill:none" d="M182.42 246.97h836.16v711.36H182.42z"/><path class="st0" d="M495.51 622.62c2-2 4.04-3.02 6.05-3.02 1.91 0 3.85 1.02 5.85 3.02l75.13 74.7c1.74 1.77 2.63 3.85 2.63 6.28 0 2.17-.89 4.04-2.63 5.65l-25.83 26.26c-2.43 2.4-4.8 3.62-7.07 3.62-2.3 0-4.4-.85-6.28-2.63l-41.8-42.2-42.2 42.2c-2.3 1.51-4.31 2.23-6.05 2.23-2.3 0-4.37-.95-6.28-2.83l-25.83-25.63c-2-1.61-3.02-3.85-3.02-6.67 0-2.43.85-4.5 2.63-6.28l74.7-74.7zm197.29 0c2-2 4.04-3.02 6.05-3.02 1.91 0 3.85 1.02 5.85 3.02l75.13 74.7c1.74 1.77 2.63 3.85 2.63 6.28 0 2.17-.89 4.04-2.63 5.65L754 735.51c-2.43 2.4-4.8 3.62-7.07 3.62-2.3 0-4.4-.85-6.28-2.63l-41.8-42.2-42.2 42.2c-2.3 1.51-4.31 2.23-6.05 2.23-2.3 0-4.37-.95-6.28-2.83l-25.83-25.63c-2-1.61-3.02-3.85-3.02-6.67 0-2.43.85-4.5 2.63-6.28l74.7-74.7z"/></svg>