<svg version="1.1" id="Calque_1" xmlns="http://www.w3.org/2000/svg" x="0" y="0" viewBox="0 0 1200 1200" style="enable-background:new 0 0 1200 1200" xml:space="preserve"><style>.st0{fill:#fff}</style><path class="st0" d="M481.19 440.61H346.13c-10.47 0-19.26 3.55-26.37 10.62-7.07 7.1-10.62 15.9-10.62 26.37v455.06c0 5.54-1.86 10.32-5.55 14.33-3.7 4.02-8.33 6.01-13.87 6.01h-86.94c-5.55 0-10.31-1.99-14.34-6.01-4.01-4.01-6.02-8.79-6.02-14.33V477.6c0-22.8 4.34-44.07 12.96-63.82 8.65-19.73 20.35-37 35.15-51.79 14.79-14.8 32.06-26.5 51.79-35.15 19.75-8.63 41.02-12.96 63.82-12.96h135.05c14.19 0 23.43-1.05 27.74-3.23 4.33-2.16 6.48-3.54 6.48-4.16 1.24-1.23 2.93-4.77 5.08-10.64 2.17-5.84 3.24-16.19 3.24-30.98v-11.1c0-3.08 1.85-5.7 5.55-7.86 3.7-2.16 8.31-3.24 13.86-3.24h114.7c5.54 0 10.32 1.08 14.33 3.24 4.02 2.16 6.02 4.78 6.02 7.86v11.1c0 14.79.92 25.14 2.78 30.98 1.85 5.87 3.4 9.41 4.61 10.64.62.62 2.94 2 6.95 4.16 4.02 2.18 13.11 3.23 27.27 3.23h135.97c22.21 0 43.16 4.33 62.9 12.96 19.73 8.65 37 20.35 51.79 35.15 14.8 14.79 26.5 32.06 35.15 51.79 8.63 19.75 12.96 41.02 12.96 63.82v455.06c0 5.54-1.86 10.32-5.55 14.33-3.71 4.02-8.33 6.01-13.87 6.01h-86.94c-5.55 0-10.31-1.99-14.33-6.01-4.01-4.01-6.03-8.79-6.03-14.33V477.6c0-10.47-3.38-19.26-10.17-26.37-6.78-7.07-15.41-10.62-25.9-10.62H719.81c-38.84 0-70.59-9.55-95.27-28.67-4.92-3.71-9.4-7.41-13.42-11.11-4-3.7-7.54-7.7-10.63-12.02-6.15 8.01-13.86 15.71-23.12 23.12-25.27 19.13-57.35 28.68-96.18 28.68"/><path class="st0" d="M524.85 613.05c5.61 0 10.42 2.02 14.47 6.07 4.05 4.07 6.07 8.88 6.07 14.48v95.02c0 5.61-2.02 10.27-6.07 14.01-4.06 3.74-8.87 5.61-14.47 5.61h-86.87c-5.61 0-10.44-1.87-14.48-5.61-4.06-3.74-6.07-8.4-6.07-14.01V633.6c0-5.61 2.01-10.42 6.07-14.48 4.05-4.05 8.88-6.07 14.48-6.07h86.87zm235.15 0c5.61 0 10.42 2.02 14.47 6.07 4.05 4.07 6.07 8.88 6.07 14.48v95.02c0 5.61-2.02 10.27-6.07 14.01-4.06 3.74-8.87 5.61-14.47 5.61h-86.87c-5.61 0-10.44-1.87-14.48-5.61-4.06-3.74-6.07-8.4-6.07-14.01V633.6c0-5.61 2.01-10.42 6.07-14.48 4.05-4.05 8.88-6.07 14.48-6.07H760z"/><path style="fill:none" d="M182.42 242.67h836.16v711.36H182.42z"/><path class="st0" d="M776.73 801.43c1.92 0 3.46.51 4.59 1.52 1.14 1 1.72 2.52 1.72 4.53v87.56c0 6.29-.87 12.24-2.61 17.82-1.74 5.55-4.14 10.68-7.19 15.34-3.06 4.66-6.71 8.85-10.96 12.6s-8.84 6.91-13.77 9.52a68.61 68.61 0 0 1-15.56 5.95 66.77 66.77 0 0 1-16.5 2.05c-8.23 0-16.27-1.47-24.12-4.44-7.86-2.99-14.84-7.2-20.97-12.69-6.12-5.46-11.07-12.04-14.87-19.72s-5.73-16.17-5.83-25.49v-41.53H422.37c-3.93 0-5.89-2.1-5.89-6.29v-40.7c0-1.83.48-3.3 1.44-4.39.96-1.09 2.44-1.65 4.45-1.65h354.36zm-60.02 103.19c2.74 0 5.49-.49 8.23-1.45 2.73-.96 5.17-2.34 7.33-4.17 2.14-1.83 3.9-4.04 5.27-6.65 1.37-2.61 2.05-5.55 2.05-8.83v-29.06h-45.77v29.06c0 3.28.67 6.24 1.98 8.9 1.33 2.65 3.04 4.86 5.14 6.65 2.11 1.78 4.53 3.14 7.26 4.1 2.76.96 5.59 1.45 8.51 1.45z"/></svg>