<svg version="1.1" id="Calque_1" xmlns="http://www.w3.org/2000/svg" x="0" y="0" viewBox="0 0 1200 1200" style="enable-background:new 0 0 1200 1200" xml:space="preserve"><style>.st0{fill:#fff}</style><path class="st0" d="M479.81 443.82H344.24c-10.52 0-19.35 3.56-26.47 10.68-7.09 7.12-10.68 15.95-10.68 26.47v456.8c0 5.56-1.85 10.36-5.56 14.39-3.72 4.01-8.36 6.01-13.94 6.01h-87.25c-5.59 0-10.36-2-14.42-6.01-4.01-4.03-6.04-8.83-6.04-14.39v-456.8c0-22.91 4.35-44.26 13.02-64.08 8.67-19.8 20.43-37.14 35.27-51.98 14.87-14.87 32.19-26.6 52.01-35.3 19.82-8.65 41.15-13 64.06-13h135.57c14.26 0 23.51-1.05 27.84-3.24 4.35-2.16 6.51-3.56 6.51-4.19 1.24-1.21 2.95-4.77 5.11-10.68 2.16-5.88 3.24-16.24 3.24-31.11v-11.12c0-3.11 1.85-5.72 5.56-7.91 3.72-2.16 8.36-3.24 13.94-3.24h115.14c5.56 0 10.36 1.08 14.37 3.24 4.03 2.19 6.04 4.8 6.04 7.91v11.12c0 14.87.95 25.23 2.79 31.11 1.87 5.9 3.43 9.46 4.64 10.68.63.63 2.95 2.03 6.99 4.19 4.03 2.19 13.15 3.24 27.36 3.24h136.49c22.3 0 43.34 4.35 63.13 13 19.82 8.7 37.17 20.43 52.01 35.3 14.87 14.84 26.6 32.19 35.27 51.98 8.67 19.82 13.02 41.18 13.02 64.08v456.8c0 5.56-1.87 10.36-5.56 14.39-3.74 4.01-8.38 6.01-13.94 6.01h-87.28c-5.56 0-10.36-2-14.39-6.01-4.01-4.03-6.04-8.83-6.04-14.39v-456.8c0-10.52-3.4-19.35-10.2-26.47-6.83-7.12-15.47-10.68-26.02-10.68H719.35c-38.99 0-70.86-9.6-95.61-28.79-4.96-3.72-9.46-7.43-13.47-11.15-4.03-3.72-7.59-7.72-10.7-12.05-6.17 8.04-13.92 15.76-23.2 23.2-25.36 19.2-57.57 28.79-96.56 28.79"/><path class="st0" d="M523.64 671.2c5.61 0 10.47 2.03 14.52 6.09 4.06 4.09 6.09 8.91 6.09 14.55v95.37c0 5.61-2.03 10.31-6.09 14.08-4.06 3.74-8.91 5.61-14.52 5.61h-87.2c-5.64 0-10.49-1.87-14.55-5.61-4.06-3.77-6.09-8.46-6.09-14.08v-95.37c0-5.64 2.03-10.47 6.09-14.55 4.06-4.06 8.91-6.09 14.55-6.09h87.2zm237.74 0c5.61 0 10.47 2.03 14.52 6.09 4.06 4.09 6.09 8.91 6.09 14.55v247.68c0 5.61-2.03 10.31-6.09 14.05-4.06 3.74-8.91 5.64-14.52 5.64h-87.2c-5.64 0-10.49-1.9-14.55-5.64-4.06-3.74-6.09-8.44-6.09-14.05V691.84c0-5.64 2.03-10.47 6.09-14.55 4.06-4.06 8.91-6.09 14.55-6.09h87.2z"/></svg>