<?xml version="1.0" encoding="utf-8"?>
<!-- Generator: Adobe Illustrator 26.0.3, SVG Export Plug-In . SVG Version: 6.00 Build 0)  -->
<svg version="1.0" id="Calque_1" xmlns="http://www.w3.org/2000/svg" xmlns:xlink="http://www.w3.org/1999/xlink" x="0px" y="0px"
	 viewBox="0 0 400.9 312.4" style="enable-background:new 0 0 400.9 312.4;" xml:space="preserve">
<style type="text/css">
	.st0{fill:#05054D;}
	.st1{fill:#0033FF;}
	.st2{clip-path:url(#SVGID_00000048479661786311068180000003223282959973561228_);fill:#0033FF;}
	.st3{fill:#FAD922;}
</style>
<path class="st0" d="M202.8,233.1c1.1,0,2,0.4,2.8,1.2c0.8,0.8,1.2,1.7,1.2,2.8v48.5c0,1.1-0.4,2-1.2,2.8c-0.8,0.7-1.7,1.1-2.8,1.1
	h-17.1c-1.1,0-2.1-0.4-2.8-1.1c-0.8-0.7-1.2-1.7-1.2-2.8v-48.5c0-1.1,0.4-2,1.2-2.8c0.8-0.8,1.7-1.2,2.8-1.2H202.8z"/>
<path class="st0" d="M304.4,99c0,2.4,0.4,4.6,1.1,6.6c0.7,2.1,1.8,3.8,3.1,5.3c1.3,1.5,3,2.7,4.9,3.6s4.1,1.3,6.5,1.3
	c2.3,0,4.4-0.4,6.3-1.3c1.9-0.9,3.5-2.1,4.8-3.6c1.3-1.5,2.3-3.3,3-5.3c0.7-2.1,1-4.3,1-6.6c0-2.3-0.4-4.5-1-6.6
	c-0.7-2.1-1.7-3.9-3-5.5c-1.3-1.6-2.9-2.8-4.8-3.7c-1.9-0.9-4-1.4-6.3-1.4c-2.4,0-4.6,0.5-6.5,1.4c-1.9,0.9-3.5,2.2-4.9,3.7
	c-1.3,1.6-2.4,3.4-3.1,5.5C304.7,94.5,304.4,96.7,304.4,99 M284.8,99c0-3.3,0.4-6.5,1.3-9.5c0.8-3,2-5.9,3.5-8.5
	c1.5-2.6,3.3-5,5.5-7.1c2.1-2.1,4.5-3.9,7.1-5.5c2.6-1.5,5.4-2.7,8.5-3.5c3-0.8,6.2-1.2,9.5-1.2c4.9,0,9.4,0.9,13.7,2.7
	c4.3,1.8,8,4.3,11.2,7.5c3.2,3.2,5.7,6.9,7.5,11.2c1.8,4.3,2.8,8.9,2.8,13.9c0,3.3-0.4,6.5-1.3,9.5c-0.8,3-2,5.8-3.5,8.5
	c-1.5,2.6-3.3,5-5.5,7.1s-4.5,4-7.1,5.5c-2.6,1.5-5.4,2.7-8.4,3.5c-3,0.8-6.1,1.2-9.4,1.2c-3.3,0-6.5-0.4-9.5-1.2
	c-3-0.8-5.8-2-8.5-3.5c-2.6-1.5-5-3.3-7.1-5.5c-2.1-2.1-4-4.5-5.5-7.1c-1.5-2.6-2.7-5.4-3.5-8.5C285.2,105.4,284.8,102.3,284.8,99"
	/>
<path class="st1" d="M74.9,110c0,6.6,1,12.7,3.1,18.4c2,5.7,4.9,10.7,8.6,14.8c3.7,4.2,8.2,7.5,13.5,9.9c5.3,2.4,11.3,3.7,17.9,3.7
	c6.4,0,12.3-1.2,17.5-3.7c5.2-2.4,9.6-5.7,13.3-9.9c3.6-4.2,6.4-9.1,8.3-14.8c1.9-5.7,2.9-11.8,2.9-18.4c0-6.4-1-12.4-2.9-18.2
	c-1.9-5.8-4.7-10.8-8.3-15.2c-3.6-4.4-8-7.8-13.3-10.3c-5.2-2.5-11-3.8-17.5-3.8c-6.7,0-12.6,1.3-17.9,3.8c-5.3,2.5-9.8,6-13.5,10.3
	c-3.7,4.4-6.6,9.4-8.6,15.2C75.9,97.6,74.9,103.6,74.9,110 M20.5,110c0-9.1,1.2-17.9,3.5-26.4c2.3-8.4,5.6-16.3,9.8-23.5
	C38.1,53,43.1,46.4,49,40.5c5.9-5.9,12.5-10.9,19.7-15.1c7.2-4.2,15.1-7.4,23.5-9.7c8.4-2.3,17.2-3.4,26.3-3.4
	c13.5,0,26.2,2.5,38,7.5c11.9,5,22.2,11.9,31,20.7c8.8,8.8,15.7,19.1,20.9,31c5.1,11.9,7.7,24.7,7.7,38.5c0,9.1-1.2,17.9-3.5,26.3
	c-2.3,8.4-5.6,16.2-9.8,23.5c-4.2,7.2-9.3,13.8-15.2,19.7c-5.9,5.9-12.5,11-19.7,15.2c-7.2,4.2-15,7.5-23.3,9.8
	c-8.3,2.3-17,3.4-26,3.4c-9.1,0-17.9-1.1-26.3-3.4c-8.4-2.3-16.2-5.5-23.5-9.8c-7.2-4.2-13.8-9.3-19.7-15.2
	c-5.9-5.9-11-12.5-15.2-19.7c-4.2-7.2-7.5-15.1-9.8-23.5C21.7,127.9,20.5,119.1,20.5,110"/>
<g>
	<defs>
		<rect id="SVGID_1_" x="277.2" y="175.1" width="24.4" height="10.9"/>
	</defs>
	<clipPath id="SVGID_00000159464297631053851330000017736158433955510669_">
		<use xlink:href="#SVGID_1_"  style="overflow:visible;"/>
	</clipPath>
	<path style="clip-path:url(#SVGID_00000159464297631053851330000017736158433955510669_);fill:#0033FF;" d="M301.6,184.3
		c0,0.5-0.2,0.9-0.5,1.2c-0.3,0.3-0.8,0.5-1.2,0.5h-21c-0.5,0-0.9-0.2-1.2-0.5c-0.3-0.3-0.5-0.8-0.5-1.2v-7.4c0-0.5,0.2-0.9,0.5-1.2
		c0.3-0.3,0.7-0.5,1.2-0.5h21c0.5,0,0.9,0.2,1.2,0.5c0.3,0.3,0.5,0.8,0.5,1.2V184.3z"/>
</g>
<path class="st3" d="M234,143.1c1.8,0,3.4,0.7,4.8,2c1.3,1.3,2,2.9,2,4.8v31.2c0,1.8-0.7,3.4-2,4.6c-1.3,1.2-2.9,1.8-4.8,1.8h-28.5
	c-1.8,0-3.4-0.6-4.8-1.8c-1.3-1.2-2-2.8-2-4.6v-31.2c0-1.8,0.7-3.4,2-4.8c1.3-1.3,2.9-2,4.8-2H234z"/>
</svg>