<?xml version="1.0" encoding="utf-8"?>
<!-- Generator: Adobe Illustrator 26.0.3, SVG Export Plug-In . SVG Version: 6.00 Build 0)  -->
<svg version="1.0" id="Calque_1" xmlns="http://www.w3.org/2000/svg" xmlns:xlink="http://www.w3.org/1999/xlink" x="0px" y="0px"
	 viewBox="0 0 171 129" style="enable-background:new 0 0 171 129;" xml:space="preserve">
<style type="text/css">
	.st0{fill:#0033FF;}
	.st1{fill:#FAD922;}
	.st2{fill:#FFFFFF;}
</style>
<g>
	<path class="st0" d="M82.1,90.9c0.3,1.5,0.1,2.8-0.6,3.9c-0.7,1.1-1.9,1.8-3.6,2l-27.8,4.8c-1.3,0.2-2.6,0-3.9-0.8
		c-1.3-0.7-2-1.9-2.3-3.4l-4.3-24.8c-0.6-3.3-1-6.6-1.3-9.8c-0.6-6.1,0.4-11.9,2.8-17.5c2.4-5.6,6.3-10.6,11.7-15.1
		c0.1-0.1,0.3-0.2,0.8-0.5c0.5-0.2,1-0.5,1.5-0.7c0.5-0.2,1.1-0.5,1.6-0.7c0.5-0.2,0.9-0.3,1-0.3c0.6-0.1,1.1,0,1.6,0.2
		c0.4,0.3,0.9,0.6,1.5,0.9l4.9,2.6c1.5,0.7,2.4,1.3,2.7,2c0.3,0.6,0.6,1.2,0.7,1.8c0.1,0.8-0.2,1.9-1.1,3.2
		c-0.8,1.2-1.8,2.7-2.8,4.4c-1,1.7-1.9,3.5-2.6,5.5c-0.7,2-0.9,4.2-0.5,6.6l0.9,5.1c0.2,1.4,1.1,2.1,2.5,2.1l6.6-1.1
		c1.5-0.3,2.8,0,3.7,0.8s1.6,1.9,1.8,3.5L82.1,90.9z M133.2,82.1c0.3,1.5,0.1,2.8-0.6,3.9c-0.7,1.1-1.9,1.8-3.6,2l-27.8,4.8
		c-1.3,0.2-2.6,0-3.9-0.8c-1.3-0.7-2-1.9-2.3-3.4l-4.3-24.8c-0.6-3.3-1-6.6-1.3-9.8c-0.6-6.1,0.4-11.9,2.8-17.5
		c2.4-5.6,6.3-10.6,11.7-15.1c0.1-0.1,0.3-0.2,0.8-0.5c0.5-0.2,1-0.5,1.5-0.7c0.5-0.2,1.1-0.5,1.6-0.7c0.5-0.2,0.9-0.3,1-0.3
		c0.6-0.1,1.1,0,1.6,0.2c0.4,0.3,0.9,0.6,1.5,0.9l5,2.6c1.5,0.7,2.4,1.3,2.7,2c0.3,0.6,0.6,1.2,0.7,1.8c0.1,0.8-0.2,1.9-1.1,3.2
		c-0.8,1.2-1.8,2.7-2.8,4.4c-1,1.7-1.9,3.5-2.6,5.5c-0.7,2-0.9,4.2-0.5,6.6l0.9,5.1c0.2,1.4,1.1,2.1,2.5,2.1l6.6-1.1
		c1.5-0.3,2.8,0,3.7,0.8c1,0.8,1.6,1.9,1.8,3.5L133.2,82.1z"/>
</g>
<g>
	<path class="st1" d="M72.7,89c-0.2,1.5-0.8,2.7-1.8,3.5c-1,0.8-2.3,1.1-4,0.9l-28-3.9c-1.3-0.2-2.5-0.8-3.4-1.9
		c-1-1.1-1.4-2.4-1.2-3.9l3.5-25c0.5-3.3,1-6.6,1.7-9.8c1.3-6,3.9-11.2,8-15.8c4-4.6,9.3-8.2,15.8-10.8c0.1-0.1,0.4-0.1,0.9-0.2
		c0.5-0.1,1.1-0.2,1.7-0.2c0.6-0.1,1.2-0.1,1.7-0.2c0.5,0,0.9,0,1.1,0c0.6,0.1,1.1,0.3,1.4,0.7c0.3,0.4,0.7,0.8,1.1,1.3l3.9,4
		c1.2,1.1,1.9,2,2,2.7c0.1,0.7,0.2,1.3,0.1,1.9c-0.1,0.8-0.8,1.7-2,2.7c-1.2,0.9-2.5,2.1-4,3.3c-1.5,1.3-2.9,2.8-4.2,4.5
		c-1.3,1.7-2.1,3.8-2.4,6.1L63.9,54c-0.2,1.4,0.4,2.3,1.7,2.7l6.6,0.9c1.5,0.2,2.6,0.8,3.3,1.9c0.7,1,0.9,2.3,0.7,3.9L72.7,89z
		 M124.1,96.1c-0.2,1.5-0.8,2.7-1.8,3.5s-2.3,1.1-4,0.9l-28-3.9c-1.3-0.2-2.5-0.8-3.4-1.9c-1-1.1-1.4-2.4-1.2-3.9l3.5-25
		c0.5-3.3,1-6.6,1.7-9.8c1.3-6,3.9-11.2,8-15.8c4-4.6,9.3-8.2,15.8-10.8c0.1-0.1,0.4-0.1,0.9-0.2c0.5-0.1,1.1-0.2,1.7-0.2
		c0.6-0.1,1.2-0.1,1.7-0.2c0.5,0,0.9,0,1.1,0c0.6,0.1,1.1,0.3,1.4,0.7c0.3,0.4,0.7,0.8,1.1,1.3l3.9,4c1.2,1.1,1.9,2,2,2.7
		s0.2,1.3,0.1,1.9c-0.1,0.8-0.8,1.7-2,2.7c-1.2,0.9-2.5,2.1-4,3.3c-1.5,1.3-2.9,2.8-4.2,4.5c-1.3,1.7-2.1,3.8-2.4,6.1l-0.7,5.1
		c-0.2,1.4,0.4,2.3,1.7,2.7l6.6,0.9c1.5,0.2,2.6,0.8,3.3,1.9c0.7,1,0.9,2.3,0.7,3.9L124.1,96.1z"/>
</g>
<g>
	<path class="st2" d="M76.9,90.2c0,1.6-0.4,2.8-1.3,3.7c-0.9,0.9-2.1,1.4-3.9,1.4H43.5c-1.3,0-2.5-0.5-3.7-1.4
		c-1.1-0.9-1.7-2.2-1.7-3.7V65c0-3.3,0.1-6.7,0.3-9.9c0.5-6.1,2.4-11.6,5.7-16.8c3.3-5.1,8.1-9.4,14.1-12.9c0.1-0.1,0.4-0.2,0.9-0.3
		c0.5-0.2,1-0.3,1.6-0.5c0.6-0.2,1.1-0.3,1.7-0.4c0.5-0.1,0.9-0.2,1-0.2c0.6,0,1.1,0.2,1.5,0.5c0.4,0.3,0.8,0.7,1.3,1.2l4.4,3.4
		c1.3,0.9,2.1,1.7,2.3,2.4c0.2,0.7,0.3,1.3,0.3,1.9c0,0.9-0.5,1.8-1.6,2.9c-1,1.1-2.2,2.4-3.5,3.9c-1.3,1.5-2.5,3.1-3.5,5
		c-1.1,1.9-1.6,4-1.6,6.4v5.1c0,1.4,0.7,2.2,2.1,2.5h6.7c1.5,0,2.7,0.5,3.6,1.4s1.2,2.2,1.2,3.7V90.2z M128.7,90.2
		c0,1.6-0.4,2.8-1.3,3.7c-0.9,0.9-2.1,1.4-3.9,1.4H95.3c-1.3,0-2.5-0.5-3.7-1.4c-1.1-0.9-1.7-2.2-1.7-3.7V65c0-3.3,0.1-6.7,0.3-9.9
		c0.5-6.1,2.4-11.6,5.7-16.8c3.3-5.1,8.1-9.4,14.1-12.9c0.1-0.1,0.4-0.2,0.9-0.3c0.5-0.2,1-0.3,1.6-0.5c0.6-0.2,1.1-0.3,1.7-0.4
		c0.5-0.1,0.9-0.2,1-0.2c0.6,0,1.1,0.2,1.5,0.5c0.4,0.3,0.8,0.7,1.3,1.2l4.4,3.4c1.3,0.9,2.1,1.7,2.3,2.4c0.2,0.7,0.3,1.3,0.3,1.9
		c0,0.9-0.5,1.8-1.6,2.9c-1,1.1-2.2,2.4-3.5,3.9c-1.3,1.5-2.5,3.1-3.5,5c-1.1,1.9-1.6,4-1.6,6.4v5.1c0,1.4,0.7,2.2,2.1,2.5h6.7
		c1.5,0,2.7,0.5,3.6,1.4s1.2,2.2,1.2,3.7V90.2z"/>
</g>
</svg>