<?xml version="1.0" encoding="utf-8"?>
<!-- Generator: Adobe Illustrator 26.0.3, SVG Export Plug-In . SVG Version: 6.00 Build 0)  -->
<svg version="1.0" id="Calque_1" xmlns="http://www.w3.org/2000/svg" xmlns:xlink="http://www.w3.org/1999/xlink" x="0px" y="0px"
	 viewBox="0 0 428 237" style="enable-background:new 0 0 428 237;" xml:space="preserve">
<style type="text/css">
	.st0{fill:#FFFFFF;}
</style>
<rect x="126.7" y="88.9" class="st0" width="35.8" height="115.7"/>
<path class="st0" d="M144.4,73.7c-11.7,0-21.2-9.6-21.2-21.4c0-11.8,9.5-21.4,21.2-21.4c11.7,0,21.2,9.6,21.2,21.4
	C165.6,64.2,156.1,73.7,144.4,73.7z"/>
<path class="st0" d="M296.8,204.7l-35.7,0c0,0,0-44.1,0-60.8c0-16.7-6.3-26-19.5-26c-14.3,0-21.8,9.7-21.8,26c0,17.8,0,60.8,0,60.8
	l-34.4,0l0-115.7l34.4,0l0,15.6c0,0,10.3-19.1,34.9-19.1c24.5,0,42.1,15,42.1,46C296.8,162.4,296.8,204.7,296.8,204.7z"/>
</svg>