<?xml version="1.0" standalone="no"?>
<!DOCTYPE svg PUBLIC "-//W3C//DTD SVG 20010904//EN"
 "http://www.w3.org/TR/2001/REC-SVG-20010904/DTD/svg10.dtd">
<svg version="1.0" xmlns="http://www.w3.org/2000/svg"
 width="504.000000pt" height="503.000000pt" viewBox="0 0 504.000000 503.000000"
 preserveAspectRatio="xMidYMid meet">
<metadata>
Created by potrace 1.16, written by Peter Selinger 2001-2019
</metadata>
<g transform="translate(0.000000,503.000000) scale(0.100000,-0.100000)"
fill="#FAD922" stroke="none">
<path d="M2261 5009 c-126 -25 -254 -121 -314 -237 -43 -84 -48 -105 -56 -225
l-6 -98 -100 -38 c-55 -21 -124 -50 -153 -65 l-53 -27 -70 65 c-112 107 -231
153 -364 143 -154 -12 -218 -51 -426 -263 -193 -197 -229 -262 -229 -419 0
-128 42 -226 141 -330 l69 -72 -44 -94 c-24 -52 -54 -122 -66 -156 l-23 -63
-67 0 c-242 0 -428 -135 -486 -353 -17 -63 -19 -458 -3 -526 37 -163 187 -313
350 -350 24 -6 81 -11 125 -11 l81 0 23 -62 c12 -35 41 -106 65 -159 l42 -96
-66 -69 c-126 -132 -168 -285 -126 -449 28 -105 61 -151 230 -320 168 -168
216 -202 320 -230 164 -42 317 0 449 126 l69 66 96 -42 c53 -24 124 -53 159
-65 l62 -23 0 -81 c0 -148 40 -248 139 -347 120 -119 187 -139 481 -139 294 0
361 20 480 139 100 101 140 202 140 355 l0 73 63 23 c34 12 105 41 158 65 l96
42 70 -67 c130 -125 283 -167 448 -125 101 27 145 59 323 238 175 177 201 213
227 314 42 161 -2 317 -128 450 l-63 66 51 121 c29 67 58 138 64 159 l13 37
81 0 c153 1 247 38 348 139 70 71 109 140 128 229 17 83 14 445 -4 517 -58
220 -241 355 -484 355 l-67 0 -38 98 c-22 53 -52 123 -68 155 l-29 59 69 72
c100 105 142 203 142 331 0 157 -36 222 -229 419 -208 212 -272 251 -426 263
-133 10 -252 -36 -364 -143 l-70 -65 -53 27 c-29 15 -98 44 -153 65 l-100 38
-6 103 c-7 107 -25 170 -72 251 -57 97 -186 184 -306 207 -64 12 -427 11 -490
-1z m506 -318 c56 -42 67 -79 71 -241 2 -80 8 -157 13 -172 18 -46 51 -66 190
-111 75 -25 195 -75 266 -111 80 -40 143 -66 162 -66 51 0 89 26 196 130 114
111 147 127 224 108 39 -10 65 -30 174 -137 134 -131 160 -165 172 -218 14
-66 -10 -109 -120 -222 -102 -104 -125 -139 -125 -185 0 -13 30 -84 66 -157
36 -74 85 -191 109 -262 70 -208 71 -209 300 -217 145 -4 163 -7 191 -27 62
-44 69 -75 69 -298 0 -191 -1 -202 -23 -237 -44 -72 -76 -82 -257 -88 -167 -5
-192 -11 -220 -53 -8 -13 -33 -79 -55 -148 -22 -68 -72 -187 -110 -264 -39
-77 -70 -151 -70 -163 0 -48 34 -99 129 -196 114 -116 131 -151 111 -226 -10
-38 -34 -67 -143 -178 -135 -136 -158 -154 -214 -166 -66 -15 -109 9 -222 119
-103 100 -139 125 -183 125 -12 0 -84 -31 -162 -70 -78 -38 -197 -88 -266
-110 -69 -23 -135 -48 -147 -56 -41 -26 -48 -53 -53 -214 -6 -179 -18 -215
-83 -258 l-41 -27 -205 0 c-198 0 -208 1 -243 23 -20 13 -47 40 -60 60 -21 34
-23 51 -27 192 -3 164 -11 197 -54 224 -12 8 -78 33 -147 56 -69 22 -188 72
-266 110 -78 39 -150 70 -162 70 -44 0 -79 -24 -183 -125 -115 -111 -157 -133
-222 -119 -56 12 -79 30 -214 166 -107 108 -133 141 -142 176 -22 79 -9 106
106 223 99 103 133 153 133 200 0 12 -31 85 -70 163 -38 78 -88 197 -110 266
-23 69 -48 135 -56 147 -27 42 -52 48 -219 53 -181 6 -213 16 -257 88 -22 35
-23 45 -23 243 l0 205 27 41 c41 62 75 73 225 73 211 0 244 19 288 166 36 116
86 237 146 352 73 140 70 153 -76 303 -122 125 -138 158 -114 243 8 30 40 70
133 164 137 141 163 161 214 173 69 16 108 -4 217 -111 106 -104 145 -130 195
-130 17 0 86 28 163 66 72 37 193 87 267 111 195 64 200 71 200 260 0 179 21
241 92 277 28 14 65 16 248 14 210 -3 216 -4 247 -27z"/>
<path d="M2380 3594 c-458 -67 -806 -372 -927 -812 -24 -88 -27 -113 -27 -272
0 -157 3 -185 27 -273 136 -506 586 -837 1106 -814 480 21 882 346 1009 815
23 87 26 114 26 272 -1 157 -3 185 -27 271 -115 423 -451 730 -876 803 -85 14
-244 19 -311 10z m348 -320 c278 -81 485 -295 558 -579 25 -99 23 -284 -4
-386 -82 -305 -329 -530 -643 -585 -367 -64 -731 144 -872 498 -117 292 -38
645 194 863 210 198 495 268 767 189z"/>
</g>
</svg>
